<svg xmlns="http://www.w3.org/2000/svg" viewBox="0 0 807.49 546.56"><defs><style>.cls-1,.cls-4,.cls-5,.cls-8,.cls-9{fill:none;}.cls-1{stroke:#231f20;}.cls-1,.cls-11,.cls-5{stroke-miterlimit:10;}.cls-2{fill:#231f20;}.cls-3,.cls-6{font-size:19px;font-family:Helvetica-Bold, Helvetica;font-weight:700;}.cls-4,.cls-9{stroke:#8d8d8d;stroke-dasharray:2;}.cls-4,.cls-8,.cls-9{stroke-linejoin:round;}.cls-11,.cls-5{stroke:#ec1c24;}.cls-11,.cls-5,.cls-8,.cls-9{stroke-width:1.5px;}.cls-6{fill:#ec1e27;}.cls-7{fill:#fff;}.cls-8{stroke:#000;}.cls-10,.cls-11,.cls-12{fill:#eb2129;}.cls-12{font-size:22px;font-family:Helvetica;}</style></defs><g id="Layer_2" data-name="Layer 2"><g id="Layer_1-2" data-name="Layer 1"><polyline class="cls-1" points="4.22 333.13 313.23 24.13 801.52 24.13"/><polygon class="cls-2" points="8.83 333.77 5.09 332.26 3.59 328.53 0 337.35 8.83 333.77"/><polygon class="cls-2" points="798.71 27.83 800.28 24.13 798.71 20.42 807.49 24.13 798.71 27.83"/><line class="cls-1" x1="313.23" y1="424.95" x2="313.23" y2="540.59"/><polygon class="cls-2" points="309.52 537.79 313.23 539.36 316.93 537.79 313.23 546.56 309.52 537.79"/><text class="cls-3" transform="translate(4.59 316.99)">j</text><text class="cls-3" transform="translate(787.5 16.34)">i</text><text class="cls-3" transform="translate(320.58 530.47)">k</text><line class="cls-4" x1="313.23" y1="167.98" x2="313.23" y2="424.95"/><line class="cls-5" x1="20.03" y1="43.31" y2="43.31"/><text class="cls-6" transform="translate(30.15 50.14)">Pillars</text><polygon class="cls-7" points="610.38 246.94 610.38 291.58 344.13 291.58 346.62 257.86 610.38 246.94"/><polygon class="cls-8" points="610.38 246.94 737.04 121.51 357 117.29 231.53 262.62 346.62 257.86 610.38 246.94"/><polyline class="cls-8" points="211.94 425.81 610.38 422.42 743.2 291.58"/><line class="cls-8" x1="231.53" y1="262.62" x2="211.94" y2="425.81"/><polyline class="cls-8" points="610.38 246.94 610.38 291.58 610.38 422.42"/><line class="cls-8" x1="737.04" y1="121.51" x2="743.2" y2="291.58"/><polyline class="cls-9" points="344.13 291.58 610.38 291.58 743.2 291.58"/><line class="cls-9" x1="357" y1="117.29" x2="346.62" y2="257.86"/><line class="cls-9" x1="346.62" y1="257.86" x2="344.13" y2="291.58"/><line class="cls-9" x1="211.94" y1="425.81" x2="344.13" y2="291.58"/><circle class="cls-10" cx="360.85" cy="65" r="3.5"/><circle class="cls-10" cx="340.02" cy="347.28" r="3.5"/><circle class="cls-10" cx="745.22" cy="347.28" r="3.5"/><circle class="cls-10" cx="735.36" cy="75.58" r="3.5"/><circle class="cls-10" cx="238.64" cy="203.35" r="3.5"/><circle class="cls-10" cx="205.17" cy="482.13" r="3.5"/><line class="cls-11" x1="360.85" y1="65" x2="340.02" y2="347.28"/><line class="cls-11" x1="735.36" y1="75.58" x2="745.22" y2="347.28"/><line class="cls-11" x1="238.64" y1="203.35" x2="205.17" y2="482.13"/><line class="cls-11" x1="610.37" y1="201.91" x2="610.37" y2="482.13"/><circle class="cls-10" cx="610.37" cy="482.13" r="3.5"/><circle class="cls-10" cx="610.37" cy="201.91" r="3.5"/><text class="cls-12" transform="translate(317.02 208.8)">P</text><text class="cls-12" transform="translate(331.69 216.12) scale(0.58)">i, j</text><text class="cls-12" transform="translate(689.93 212.91)">P</text><text class="cls-12" transform="translate(704.6 220.23) scale(0.58)">i+1, j</text><text class="cls-12" transform="translate(174.55 347.65)">P</text><text class="cls-12" transform="translate(189.22 354.97) scale(0.58)">i, j+1</text><text class="cls-12" transform="translate(547.45 347.76)">P</text><text class="cls-12" transform="translate(562.13 355.08) scale(0.58)">i+1, j+1</text><line class="cls-1" x1="313.23" y1="24.13" x2="313.23" y2="167.98"/></g></g></svg>