<svg xmlns="http://www.w3.org/2000/svg" viewBox="0 0 815.8 288.12"><defs><style>.cls-1{font-size:24px;font-family:Helvetica-Bold, Helvetica;font-weight:700;}.cls-2{fill:none;stroke:#000;stroke-miterlimit:10;stroke-width:1.5px;}</style></defs><g id="Layer_2" data-name="Layer 2"><g id="Layer_1-2" data-name="Layer 1"><text class="cls-1" transform="translate(29.57 276.58)">Cartesian Grid </text><rect class="cls-2" x="0.75" y="0.75" width="229.69" height="229.69"/><line class="cls-2" x1="0.75" y1="211.3" x2="230.44" y2="211.3"/><line class="cls-2" x1="0.75" y1="192.15" x2="230.44" y2="192.15"/><line class="cls-2" x1="0.75" y1="173.01" x2="230.44" y2="173.01"/><line class="cls-2" x1="0.75" y1="153.87" x2="230.44" y2="153.87"/><line class="cls-2" x1="0.75" y1="134.73" x2="230.44" y2="134.73"/><line class="cls-2" x1="0.75" y1="115.59" x2="230.44" y2="115.59"/><line class="cls-2" x1="0.75" y1="96.45" x2="230.44" y2="96.45"/><line class="cls-2" x1="0.75" y1="77.31" x2="230.44" y2="77.31"/><line class="cls-2" x1="0.75" y1="58.17" x2="230.44" y2="58.17"/><line class="cls-2" x1="0.75" y1="39.03" x2="230.44" y2="39.03"/><line class="cls-2" x1="0.75" y1="19.89" x2="230.44" y2="19.89"/><line class="cls-2" x1="211.3" y1="0.75" x2="211.3" y2="230.44"/><line class="cls-2" x1="192.16" y1="0.75" x2="192.16" y2="230.44"/><line class="cls-2" x1="173.01" y1="0.75" x2="173.01" y2="230.44"/><line class="cls-2" x1="153.87" y1="0.75" x2="153.87" y2="230.44"/><line class="cls-2" x1="134.73" y1="0.75" x2="134.73" y2="230.44"/><line class="cls-2" x1="115.59" y1="0.75" x2="115.59" y2="230.44"/><line class="cls-2" x1="96.45" y1="0.75" x2="96.45" y2="230.44"/><line class="cls-2" x1="77.31" y1="0.75" x2="77.31" y2="230.44"/><line class="cls-2" x1="58.17" y1="0.75" x2="58.17" y2="230.44"/><line class="cls-2" x1="39.03" y1="0.75" x2="39.03" y2="230.44"/><line class="cls-2" x1="19.89" y1="0.75" x2="19.89" y2="230.44"/><text class="cls-1" transform="translate(335.22 276.58)">Regular Grid</text><rect class="cls-2" x="293.06" y="0.75" width="229.69" height="229.69"/><line class="cls-2" x1="293.06" y1="192.15" x2="522.74" y2="192.15"/><line class="cls-2" x1="293.06" y1="153.87" x2="522.74" y2="153.87"/><line class="cls-2" x1="293.06" y1="115.59" x2="522.74" y2="115.59"/><line class="cls-2" x1="293.06" y1="77.31" x2="522.74" y2="77.31"/><line class="cls-2" x1="293.06" y1="39.03" x2="522.74" y2="39.03"/><line class="cls-2" x1="503.6" y1="0.75" x2="503.6" y2="230.44"/><line class="cls-2" x1="484.46" y1="0.75" x2="484.46" y2="230.44"/><line class="cls-2" x1="465.32" y1="0.75" x2="465.32" y2="230.44"/><line class="cls-2" x1="446.18" y1="0.75" x2="446.18" y2="230.44"/><line class="cls-2" x1="427.04" y1="0.75" x2="427.04" y2="230.44"/><line class="cls-2" x1="407.9" y1="0.75" x2="407.9" y2="230.44"/><line class="cls-2" x1="388.76" y1="0.75" x2="388.76" y2="230.44"/><line class="cls-2" x1="369.62" y1="0.75" x2="369.62" y2="230.44"/><line class="cls-2" x1="350.48" y1="0.75" x2="350.48" y2="230.44"/><line class="cls-2" x1="331.34" y1="0.75" x2="331.34" y2="230.44"/><line class="cls-2" x1="312.2" y1="0.75" x2="312.2" y2="230.44"/><text class="cls-1" transform="translate(610.84 275.81)">Rectilinear Grid</text><rect class="cls-2" x="585.36" y="1.52" width="229.69" height="229.69"/><line class="cls-2" x1="585.36" y1="183.26" x2="815.05" y2="183.26"/><line class="cls-2" x1="585.36" y1="139.68" x2="815.05" y2="139.68"/><line class="cls-2" x1="585.36" y1="100.06" x2="815.05" y2="100.06"/><line class="cls-2" x1="585.36" y1="64.04" x2="815.05" y2="64.04"/><line class="cls-2" x1="585.36" y1="31.29" x2="815.05" y2="31.29"/><line class="cls-2" x1="608.9" y1="1.52" x2="608.9" y2="231.21"/><line class="cls-2" x1="631.52" y1="1.52" x2="631.52" y2="231.21"/><line class="cls-2" x1="653.28" y1="1.52" x2="653.28" y2="231.21"/><line class="cls-2" x1="674.2" y1="1.52" x2="674.2" y2="231.21"/><line class="cls-2" x1="694.31" y1="1.52" x2="694.31" y2="231.21"/><line class="cls-2" x1="713.66" y1="1.52" x2="713.66" y2="231.21"/><line class="cls-2" x1="732.25" y1="1.52" x2="732.25" y2="231.21"/><line class="cls-2" x1="750.14" y1="1.52" x2="750.14" y2="231.21"/><line class="cls-2" x1="767.33" y1="1.52" x2="767.33" y2="231.21"/><line class="cls-2" x1="783.87" y1="1.52" x2="783.87" y2="231.21"/><line class="cls-2" x1="799.76" y1="1.52" x2="799.76" y2="231.21"/></g></g></svg>