<svg xmlns="http://www.w3.org/2000/svg" viewBox="0 0 720.08 329.04"><defs><style>.cls-1{font-size:24px;}.cls-1,.cls-2{font-family:Helvetica-Bold, Helvetica;font-weight:700;}.cls-2{font-size:19px;fill:#0d30ff;}.cls-3{fill:none;stroke:#231f20;stroke-miterlimit:10;stroke-width:1.5px;}.cls-4{fill:#ec1c24;}</style></defs><g id="Layer_2" data-name="Layer 2"><g id="Layer_1-2" data-name="Layer 1"><text class="cls-1" transform="translate(90.39 317.5)">Conforming</text><text class="cls-1" transform="translate(466.4 317.5)">Non-Conforming</text><text class="cls-2" transform="translate(458.55 192.84)">Cell 3</text><rect class="cls-3" x="409.19" y="112.98" width="149.42" height="152.52"/><text class="cls-2" transform="translate(611.07 192.84)">Cell 4</text><rect class="cls-3" x="558.61" y="112.98" width="155.61" height="152.52"/><rect class="cls-4" x="708.36" y="259.64" width="11.71" height="11.71"/><rect class="cls-4" x="552.75" y="107.12" width="11.71" height="11.71"/><rect class="cls-4" x="552.75" y="259.64" width="11.71" height="11.71"/><rect class="cls-4" x="403.33" y="259.64" width="11.71" height="11.71"/><text class="cls-2" transform="translate(29.87 63.02)">Cell 1</text><rect class="cls-3" x="5.86" y="5.86" width="98.73" height="107.12"/><text class="cls-2" transform="translate(29.88 192.84)">Cell 3</text><rect class="cls-3" x="5.86" y="112.98" width="98.73" height="152.52"/><text class="cls-2" transform="translate(182.39 63.02)">Cell 2</text><rect class="cls-3" x="104.59" y="5.86" width="206.3" height="107.12"/><text class="cls-2" transform="translate(182.39 192.84)">Cell 4</text><rect class="cls-3" x="104.59" y="112.98" width="206.3" height="152.52"/><rect class="cls-4" x="305.03" width="11.71" height="11.71"/><rect class="cls-4" x="305.03" y="107.12" width="11.71" height="11.71"/><rect class="cls-4" x="305.03" y="259.64" width="11.71" height="11.71"/><rect class="cls-4" x="98.73" width="11.71" height="11.71"/><rect class="cls-4" x="98.73" y="107.12" width="11.71" height="11.71"/><rect class="cls-4" x="98.73" y="259.64" width="11.71" height="11.71"/><rect class="cls-4" width="11.71" height="11.71"/><text class="cls-2" transform="translate(433.21 63.02)">Cell 1</text><rect class="cls-3" x="409.19" y="5.86" width="98.73" height="107.12"/><text class="cls-2" transform="translate(585.72 63.02)">Cell 2</text><rect class="cls-3" x="507.92" y="5.86" width="206.3" height="107.12"/><rect class="cls-4" x="708.36" width="11.71" height="11.71"/><rect class="cls-4" x="502.06" width="11.71" height="11.71"/><rect class="cls-4" x="403.33" width="11.71" height="11.71"/><rect class="cls-4" y="107.12" width="11.71" height="11.71"/><rect class="cls-4" y="259.64" width="11.71" height="11.71"/><rect class="cls-4" x="708.36" y="107.12" width="11.71" height="11.71"/><rect class="cls-4" x="502.06" y="107.12" width="11.71" height="11.71"/><rect class="cls-4" x="403.33" y="107.12" width="11.71" height="11.71"/></g></g></svg>