<svg xmlns="http://www.w3.org/2000/svg" viewBox="0 0 857.46 569.49"><defs><style>.cls-1,.cls-11{fill:none;}.cls-1,.cls-10{stroke:#ec1c24;}.cls-1,.cls-10,.cls-11{stroke-miterlimit:10;stroke-width:1.5px;}.cls-2,.cls-3,.cls-6,.cls-8{font-size:19px;font-family:Helvetica-Bold, Helvetica;font-weight:700;}.cls-2{fill:#ec1e27;}.cls-3,.cls-5{fill:#ab00ea;}.cls-4{letter-spacing:-0.07em;}.cls-6,.cls-7{fill:#f9ac00;}.cls-8,.cls-9{fill:#0d30ff;}.cls-10{fill:#eb2129;}.cls-11{stroke:#000;}</style></defs><g id="Layer_2" data-name="Layer 2"><g id="Layer_1-2" data-name="Layer 1"><line class="cls-1" x1="675.85" y1="21.18" x2="655.82" y2="21.18"/><text class="cls-2" transform="translate(685.98 28.02)">Pillars</text><text class="cls-3" transform="translate(686.46 61.01)">Pillar <tspan class="cls-4" x="51.75" y="0">T</tspan><tspan x="61.95" y="0">op Point</tspan></text><circle class="cls-5" cx="659.32" cy="54.58" r="3.5"/><text class="cls-6" transform="translate(686.46 94.01)">Pillar Bottom Point</text><circle class="cls-7" cx="659.32" cy="87.58" r="3.5"/><text class="cls-8" transform="translate(686.46 127)">Cell Corner Point</text><circle class="cls-9" cx="659.32" cy="120.57" r="3.5"/><line class="cls-10" x1="218.29" y1="105.05" x2="219.75" y2="128.34"/><line class="cls-10" x1="97.01" y1="79.67" x2="98.47" y2="102.96"/><line class="cls-10" x1="364.89" y1="28.89" x2="366.35" y2="52.18"/><line class="cls-10" x1="243.6" y1="3.5" x2="245.06" y2="26.79"/><line class="cls-10" x1="483.67" y1="44.25" x2="495.52" y2="143.7"/><line class="cls-10" x1="620.32" y1="140.32" x2="621.64" y2="177.12"/><line class="cls-10" x1="485.69" y1="213.59" x2="487.01" y2="250.38"/><line class="cls-10" x1="333.92" y1="128.34" x2="358.23" y2="215.03"/><line class="cls-11" x1="219.75" y1="128.34" x2="366.35" y2="52.18"/><line class="cls-11" x1="246.08" y1="203.07" x2="487.64" y2="77.57"/><line class="cls-11" x1="251.57" y1="249.2" x2="493.13" y2="123.7"/><line class="cls-11" x1="253.96" y1="269.2" x2="495.52" y2="143.7"/><line class="cls-11" x1="3.5" y1="152.3" x2="246.08" y2="203.07"/><line class="cls-11" x1="98.47" y1="102.96" x2="341.04" y2="153.73"/><line class="cls-11" x1="3.5" y1="195.01" x2="251.57" y2="249.2"/><line class="cls-11" x1="3.5" y1="238.31" x2="256.58" y2="291.24"/><line class="cls-11" x1="253.96" y1="269.2" x2="506.2" y2="336.04"/><line class="cls-11" x1="506.2" y1="336.04" x2="747.76" y2="210.54"/><line class="cls-11" x1="387.44" y1="304.57" x2="621.64" y2="177.12"/><line class="cls-11" x1="358.23" y1="215.03" x2="607.44" y2="283.45"/><line class="cls-11" x1="122.07" y1="177.67" x2="130.17" y2="306.7"/><line class="cls-11" x1="246.08" y1="203.07" x2="261.45" y2="332.1"/><line class="cls-11" x1="341.04" y1="153.73" x2="358.23" y2="215.03"/><polyline class="cls-11" points="495.52 143.69 487.63 77.57 245.06 26.79 3.5 152.3 3.5 282.19 261.45 332.1"/><line class="cls-11" x1="258.48" y1="307.15" x2="389.58" y2="347.4"/><line class="cls-11" x1="508.66" y1="395.14" x2="389.58" y2="347.4"/><line class="cls-11" x1="263.22" y1="346.89" x2="391.51" y2="397.97"/><line class="cls-11" x1="510.67" y1="463.52" x2="391.51" y2="397.97"/><line class="cls-11" x1="508.66" y1="395.14" x2="612.43" y2="330.13"/><line class="cls-11" x1="510.67" y1="463.52" x2="619.11" y2="382.13"/><polyline class="cls-11" points="623.09 430 513.27 537.69 394.5 446.08"/><line class="cls-11" x1="612.43" y1="330.13" x2="752.59" y2="242.18"/><line class="cls-11" x1="619.11" y1="382.13" x2="758" y2="277.64"/><line class="cls-11" x1="607.44" y1="283.45" x2="623.09" y2="430.01"/><polyline class="cls-11" points="623.09 430 762.5 307.15 747.76 210.54 495.52 143.69"/><line class="cls-11" x1="506.2" y1="336.04" x2="513.27" y2="537.69"/><polyline class="cls-11" points="253.96 269.2 267.36 381.64 394.5 446.08"/><line class="cls-11" x1="387.44" y1="304.57" x2="394.5" y2="446.09"/><line class="cls-11" x1="122.07" y1="177.67" x2="219.75" y2="128.34"/><line class="cls-10" x1="3.5" y1="124.68" x2="3.5" y2="314.36"/><line class="cls-10" x1="119.64" y1="138.62" x2="131.96" y2="335.31"/><line class="cls-10" x1="385.38" y1="263.29" x2="396.04" y2="476.94"/><line class="cls-10" x1="504.64" y1="291.53" x2="514.26" y2="565.99"/><line class="cls-10" x1="603.59" y1="247.34" x2="626.98" y2="466.49"/><line class="cls-10" x1="743.57" y1="183.07" x2="769.24" y2="351.36"/><line class="cls-10" x1="241.72" y1="166.56" x2="271.88" y2="419.59"/><circle class="cls-9" cx="122.07" cy="177.67" r="3.5"/><circle class="cls-9" cx="3.5" cy="152.3" r="3.5"/><circle class="cls-9" cx="124.79" cy="221.5" r="3.5"/><circle class="cls-9" cx="127.5" cy="264.24" r="3.5"/><circle class="cls-9" cx="130.17" cy="306.7" r="3.5"/><circle class="cls-9" cx="261.45" cy="332.1" r="3.5"/><circle class="cls-9" cx="263.22" cy="346.89" r="3.5"/><circle class="cls-9" cx="267.36" cy="381.64" r="3.5"/><circle class="cls-9" cx="394.5" cy="446.09" r="3.5"/><circle class="cls-9" cx="391.51" cy="397.97" r="3.5"/><circle class="cls-9" cx="389.58" cy="347.4" r="3.5"/><circle class="cls-9" cx="387.44" cy="304.57" r="3.5"/><circle class="cls-9" cx="506.2" cy="336.04" r="3.5"/><circle class="cls-9" cx="508.66" cy="395.14" r="3.5"/><circle class="cls-9" cx="510.67" cy="463.52" r="3.5"/><circle class="cls-9" cx="513.27" cy="537.69" r="3.5"/><circle class="cls-9" cx="623.09" cy="430.01" r="3.5"/><circle class="cls-9" cx="618.06" cy="382.92" r="3.5"/><circle class="cls-9" cx="612.43" cy="330.13" r="3.5"/><circle class="cls-9" cx="607.44" cy="283.45" r="3.5"/><circle class="cls-9" cx="747.76" cy="210.54" r="3.5"/><circle class="cls-9" cx="621.64" cy="177.12" r="3.5"/><circle class="cls-9" cx="487.01" cy="250.38" r="3.5"/><circle class="cls-9" cx="495.52" cy="143.7" r="3.5"/><circle class="cls-9" cx="493.13" cy="123.7" r="3.5"/><circle class="cls-9" cx="487.64" cy="77.57" r="3.5"/><circle class="cls-9" cx="366.35" cy="52.18" r="3.5"/><circle class="cls-9" cx="245.06" cy="26.79" r="3.5"/><circle class="cls-9" cx="98.47" cy="102.96" r="3.5"/><circle class="cls-9" cx="219.75" cy="128.34" r="3.5"/><circle class="cls-9" cx="752.59" cy="242.18" r="3.5"/><circle class="cls-9" cx="758" cy="277.64" r="3.5"/><circle class="cls-9" cx="762.5" cy="307.15" r="3.5"/><circle class="cls-9" cx="256.58" cy="291.24" r="3.5"/><circle class="cls-9" cx="253.96" cy="269.2" r="3.5"/><circle class="cls-9" cx="251.57" cy="249.2" r="3.5"/><circle class="cls-9" cx="246.08" cy="203.07" r="3.5"/><circle class="cls-9" cx="341.04" cy="153.73" r="3.5"/><circle class="cls-9" cx="353.03" cy="196.49" r="3.5"/><circle class="cls-9" cx="358.23" cy="215.03" r="3.5"/><circle class="cls-9" cx="3.5" cy="195.01" r="3.5"/><circle class="cls-9" cx="3.5" cy="238.31" r="3.5"/><circle class="cls-9" cx="3.5" cy="282.19" r="3.5"/><circle class="cls-5" cx="3.5" cy="124.68" r="3.5"/><circle class="cls-5" cx="119.64" cy="138.62" r="3.5"/><circle class="cls-5" cx="241.72" cy="166.56" r="3.5"/><circle class="cls-5" cx="385.38" cy="263.29" r="3.5"/><circle class="cls-5" cx="504.64" cy="291.53" r="3.5"/><circle class="cls-5" cx="603.59" cy="247.34" r="3.5"/><circle class="cls-5" cx="485.69" cy="213.59" r="3.5"/><circle class="cls-5" cx="333.92" cy="128.34" r="3.5"/><circle class="cls-5" cx="218.29" cy="105.05" r="3.5"/><circle class="cls-5" cx="97.01" cy="79.67" r="3.5"/><circle class="cls-5" cx="243.6" cy="3.5" r="3.5"/><circle class="cls-5" cx="364.89" cy="28.89" r="3.5"/><circle class="cls-5" cx="483.67" cy="44.25" r="3.5"/><circle class="cls-5" cx="620.32" cy="140.32" r="3.5"/><circle class="cls-5" cx="743.57" cy="183.07" r="3.5"/><circle class="cls-7" cx="3.5" cy="314.36" r="3.5"/><circle class="cls-7" cx="131.96" cy="335.31" r="3.5"/><circle class="cls-7" cx="271.72" cy="418.21" r="3.5"/><circle class="cls-7" cx="396.04" cy="476.94" r="3.5"/><circle class="cls-7" cx="514.26" cy="565.99" r="3.5"/><circle class="cls-7" cx="769.24" cy="351.36" r="3.5"/><circle class="cls-7" cx="626.98" cy="466.49" r="3.5"/></g></g></svg>