<svg xmlns="http://www.w3.org/2000/svg" viewBox="0 0 1379.64 541.16"><defs><style>.cls-1,.cls-11{font-size:19px;}.cls-1,.cls-2,.cls-9{fill:#0d30ff;}.cls-1,.cls-11,.cls-5{font-family:Helvetica-Bold, Helvetica;font-weight:700;}.cls-10,.cls-3,.cls-6,.cls-7,.cls-8{fill:none;}.cls-3{stroke:#231f20;}.cls-10,.cls-3{stroke-miterlimit:10;}.cls-4{fill:#231f20;}.cls-5,.cls-9{font-size:15px;}.cls-6,.cls-7{stroke:#8d8d8d;stroke-dasharray:2;}.cls-6,.cls-7,.cls-8{stroke-linejoin:round;}.cls-7,.cls-8{stroke-width:1.5px;}.cls-10,.cls-8{stroke:#000;}.cls-9{font-family:Helvetica;}.cls-10{stroke-width:3px;}</style></defs><g id="Layer_2" data-name="Layer 2"><g id="Layer_1-2" data-name="Layer 1"><text class="cls-1" transform="translate(30.64 64.18)">Cell Corner Point</text><circle class="cls-2" cx="3.5" cy="57.76" r="3.5"/><polyline class="cls-3" points="4.22 329.69 313.23 20.69 1373.67 20.69"/><polygon class="cls-4" points="8.83 330.33 5.09 328.82 3.59 325.09 0 333.92 8.83 330.33"/><polygon class="cls-4" points="1370.86 24.39 1372.43 20.69 1370.86 16.98 1379.64 20.69 1370.86 24.39"/><line class="cls-3" x1="313.23" y1="398.05" x2="313.23" y2="488.15"/><polygon class="cls-4" points="309.52 485.35 313.23 486.92 316.93 485.35 313.23 494.12 309.52 485.35"/><text class="cls-5" transform="translate(5.7 313.55)">j</text><text class="cls-5" transform="translate(1359.21 12.9)">i</text><text class="cls-5" transform="translate(322.8 478.03)">k</text><line class="cls-3" x1="313.23" y1="20.69" x2="313.23" y2="126.78"/><line class="cls-6" x1="313.23" y1="126.78" x2="313.23" y2="398.05"/><polyline class="cls-7" points="283.7 398.05 369.83 311.92 400.6 281.15 486.73 195.02 517.51 164.24"/><polyline class="cls-7" points="244.99 281.15 314.47 281.15 400.6 281.15 470.08 281.15 556.21 281.15"/><polyline class="cls-7" points="361.89 164.24 431.38 164.24 517.51 164.24 586.99 164.24 673.12 164.24"/><polyline class="cls-7" points="128.09 398.05 214.22 311.92 244.99 281.15 331.11 195.02 361.89 164.24"/><line class="cls-7" x1="244.99" y1="195.02" x2="244.99" y2="281.15"/><line class="cls-7" x1="400.6" y1="195.02" x2="400.6" y2="281.15"/><line class="cls-7" x1="361.89" y1="78.11" x2="361.89" y2="164.24"/><line class="cls-7" x1="517.51" y1="78.11" x2="517.51" y2="164.24"/><polyline class="cls-8" points="556.22 195.02 586.99 164.24 673.12 78.11 517.51 78.11 361.89 78.11 244.99 195.02 128.09 311.92 214.22 311.92 283.7 311.92 369.83 311.92 439.31 311.92 470.08 281.15 556.21 195.02"/><polyline class="cls-8" points="283.7 311.92 314.47 281.15 400.6 195.02 431.38 164.24 517.51 78.11"/><polyline class="cls-8" points="244.99 195.02 331.11 195.02 400.6 195.02 486.73 195.02 556.21 195.02 556.22 195.02"/><polyline class="cls-8" points="556.22 281.14 673.12 164.24 673.12 78.11"/><line class="cls-7" x1="556.21" y1="281.15" x2="556.22" y2="281.15"/><polyline class="cls-8" points="128.09 311.92 128.09 398.05 283.7 398.05 439.31 398.05 556.21 281.15"/><line class="cls-8" x1="283.7" y1="311.92" x2="283.7" y2="398.05"/><line class="cls-8" x1="439.31" y1="311.92" x2="439.31" y2="398.05"/><polyline class="cls-8" points="556.22 281.15 556.22 281.14 556.22 195.02"/><polyline class="cls-7" points="813.78 215.02 813.78 301.15 696.88 418.05"/><line class="cls-7" x1="969.39" y1="301.69" x2="813.78" y2="301.15"/><polyline class="cls-7" points="970.68 58.12 970.68 144.25 853.78 261.15"/><line class="cls-7" x1="1126.29" y1="144.78" x2="970.68" y2="144.25"/><polyline class="cls-7" points="1186.29 58.12 1186.29 144.25 1069.39 261.15"/><line class="cls-7" x1="1341.91" y1="144.78" x2="1186.29" y2="144.25"/><polyline class="cls-7" points="1029.39 215.02 1029.39 301.15 912.49 418.05"/><line class="cls-7" x1="1185" y1="301.69" x2="1029.39" y2="301.15"/><polyline class="cls-7" points="912.49 358.33 969.39 301.69 969.39 275.02"/><line class="cls-7" x1="853.78" y1="215.02" x2="853.78" y2="261.15"/><line class="cls-7" x1="969.39" y1="261.15" x2="853.78" y2="261.15"/><line class="cls-7" x1="1009.39" y1="235.02" x2="1009.39" y2="261.15"/><polyline class="cls-7" points="1126.29 118.12 1126.29 144.78 1009.39 261.15 983.26 261.15"/><line class="cls-7" x1="1069.39" y1="215.02" x2="1069.39" y2="261.15"/><line class="cls-7" x1="1181.59" y1="261.15" x2="1069.39" y2="261.15"/><rect class="cls-8" x="696.87" y="331.92" width="155.61" height="86.13"/><polygon class="cls-8" points="696.88 331.92 813.78 215.02 969.39 215.02 852.49 331.92 696.88 331.92"/><rect class="cls-8" x="912.49" y="331.92" width="155.61" height="86.13"/><polygon class="cls-8" points="912.49 331.92 1029.39 215.02 1185 215.02 1068.1 331.92 912.49 331.92"/><polygon class="cls-8" points="853.78 175.02 970.68 58.12 1126.29 58.12 1009.39 175.02 853.78 175.02"/><polygon class="cls-8" points="1069.39 175.02 1186.29 58.12 1341.91 58.12 1225 175.02 1069.39 175.02"/><line class="cls-8" x1="969.39" y1="215.02" x2="969.39" y2="275.02"/><line class="cls-8" x1="852.49" y1="418.05" x2="912.49" y2="358.33"/><polyline class="cls-8" points="1185 215.02 1185 301.69 1068.1 418.05"/><line class="cls-8" x1="1225" y1="175.02" x2="1225" y2="261.15"/><polyline class="cls-8" points="1185 261.15 1225 261.15 1341.91 144.78 1341.91 58.12"/><line class="cls-8" x1="1069.39" y1="175.02" x2="1069.39" y2="215.02"/><line class="cls-8" x1="1126.29" y1="58.12" x2="1126.29" y2="118.12"/><line class="cls-8" x1="1009.39" y1="175.02" x2="1009.39" y2="235.02"/><line class="cls-8" x1="983.26" y1="261.15" x2="969.39" y2="261.15"/><line class="cls-8" x1="853.78" y1="175.02" x2="853.78" y2="215.02"/><line class="cls-8" x1="1055.77" y1="215.02" x2="1069.39" y2="201.39"/><text class="cls-9" transform="translate(925.53 72.55)">(1,1,1)</text><text class="cls-9" transform="translate(1081.14 72.55)">(2,1,1)</text><text class="cls-9" transform="translate(1141.14 72.55)">(3,1,1)</text><text class="cls-9" transform="translate(1287.95 72.55)">(N</text><text class="cls-9" transform="translate(1303.78 77.55) scale(0.58)">ci</text><text class="cls-9" transform="translate(1310.09 72.55)">,1,1)</text><text class="cls-9" transform="translate(808.63 189.46)">(1,2,1)</text><text class="cls-9" transform="translate(964.24 189.46)">(2,2,1)</text><text class="cls-9" transform="translate(1024.24 189.46)">(3,2,1)</text><text class="cls-9" transform="translate(1171.05 189.46)">(N</text><text class="cls-9" transform="translate(1186.87 194.45) scale(0.58)">ci</text><text class="cls-9" transform="translate(1193.19 189.46)">,2,1)</text><text class="cls-9" transform="translate(768.63 229.46)">(1,3,1)</text><text class="cls-9" transform="translate(924.24 229.46)">(2,3,1)</text><text class="cls-9" transform="translate(984.24 229.46)">(3,3,1)</text><text class="cls-9" transform="translate(1131.05 229.46)">(N</text><text class="cls-9" transform="translate(1146.87 234.45) scale(0.58)">ci</text><text class="cls-9" transform="translate(1153.19 229.46)">,3,1)</text><text class="cls-9" transform="translate(642.92 346.36)">(1,N</text><text class="cls-9" transform="translate(671.26 351.35) scale(0.58)">cj</text><text class="cls-9" transform="translate(677.57 346.36)">,1)</text><text class="cls-9" transform="translate(798.53 346.36)">(2,N</text><text class="cls-9" transform="translate(826.87 351.35) scale(0.58)">cj</text><text class="cls-9" transform="translate(833.18 346.36)">,1)</text><text class="cls-9" transform="translate(858.53 346.36)">(3,N</text><text class="cls-9" transform="translate(886.87 351.35) scale(0.58)">cj</text><text class="cls-9" transform="translate(893.18 346.36)">,1)</text><text class="cls-9" transform="translate(1005.34 346.36)">(N</text><text class="cls-9" transform="translate(1021.17 351.35) scale(0.58)">ci</text><text class="cls-9" transform="translate(1027.48 346.36)">,N</text><text class="cls-9" transform="translate(1042.48 351.35) scale(0.58)">cj</text><text class="cls-9" transform="translate(1048.8 346.36)">,1)</text><text class="cls-9" transform="translate(925.53 158.68)">(1,1,2)</text><text class="cls-9" transform="translate(1081.14 158.68)">(2,1,2)</text><text class="cls-9" transform="translate(1141.14 158.68)">(3,1,2)</text><text class="cls-9" transform="translate(1287.95 158.68)">(N</text><text class="cls-9" transform="translate(1303.78 163.68) scale(0.58)">ci</text><text class="cls-9" transform="translate(1310.09 158.68)">,1,2)</text><text class="cls-9" transform="translate(808.63 275.59)">(1,2,2)</text><text class="cls-9" transform="translate(964.24 275.59)">(2,2,2)</text><text class="cls-9" transform="translate(1024.24 275.59)">(3,2,2)</text><text class="cls-9" transform="translate(1171.05 275.59)">(N</text><text class="cls-9" transform="translate(1186.87 280.58) scale(0.58)">ci</text><text class="cls-9" transform="translate(1193.19 275.59)">,2,2)</text><text class="cls-9" transform="translate(768.63 315.59)">(1,3,2)</text><text class="cls-9" transform="translate(924.24 315.59)">(2,3,2)</text><text class="cls-9" transform="translate(984.24 315.59)">(3,3,1)</text><text class="cls-9" transform="translate(1131.05 315.59)">(N</text><text class="cls-9" transform="translate(1146.87 320.58) scale(0.58)">ci</text><text class="cls-9" transform="translate(1153.19 315.59)">,3,2)</text><text class="cls-9" transform="translate(642.92 432.49)">(1,N</text><text class="cls-9" transform="translate(671.26 437.48) scale(0.58)">cj</text><text class="cls-9" transform="translate(677.57 432.49)">,2)</text><text class="cls-9" transform="translate(798.53 432.49)">(2,N</text><text class="cls-9" transform="translate(826.87 437.48) scale(0.58)">cj</text><text class="cls-9" transform="translate(833.18 432.49)">,2)</text><text class="cls-9" transform="translate(858.53 432.49)">(3,N</text><text class="cls-9" transform="translate(886.87 437.48) scale(0.58)">cj</text><text class="cls-9" transform="translate(893.18 432.49)">,2)</text><text class="cls-9" transform="translate(1005.34 432.49)">(N</text><text class="cls-9" transform="translate(1021.17 437.48) scale(0.58)">ci</text><text class="cls-9" transform="translate(1027.48 432.49)">,N</text><text class="cls-9" transform="translate(1042.48 437.48) scale(0.58)">cj</text><text class="cls-9" transform="translate(1048.8 432.49)">,2)</text><line class="cls-10" x1="665.64" y1="238.08" x2="703.45" y2="238.08"/><polygon points="697.97 245.31 701.04 238.08 697.97 230.86 715.09 238.08 697.97 245.31"/><text class="cls-11" transform="translate(344.12 532.02)">Cell Corners</text><text class="cls-11" transform="translate(888.99 532.02)">Cell Corner Indexing in ZCORN</text><circle class="cls-2" cx="128.09" cy="311.92" r="3.5"/><circle class="cls-2" cx="128.09" cy="398.05" r="3.5"/><circle class="cls-2" cx="283.7" cy="311.92" r="3.5"/><circle class="cls-2" cx="283.7" cy="398.05" r="3.5"/><circle class="cls-2" cx="439.31" cy="311.92" r="3.5"/><circle class="cls-2" cx="439.31" cy="398.05" r="3.5"/><circle class="cls-2" cx="696.87" cy="331.92" r="3.5"/><circle class="cls-2" cx="696.87" cy="418.05" r="3.5"/><circle class="cls-2" cx="852.49" cy="331.92" r="3.5"/><circle class="cls-2" cx="852.49" cy="418.05" r="3.5"/><circle class="cls-2" cx="912.49" cy="331.92" r="3.5"/><circle class="cls-2" cx="912.49" cy="418.05" r="3.5"/><circle class="cls-2" cx="1068.1" cy="331.92" r="3.5"/><circle class="cls-2" cx="1068.1" cy="418.05" r="3.5"/><circle class="cls-2" cx="853.78" cy="175.02" r="3.5"/><circle class="cls-2" cx="853.78" cy="261.15" r="3.5"/><circle class="cls-2" cx="1009.39" cy="175.02" r="3.5"/><circle class="cls-2" cx="1009.39" cy="261.15" r="3.5"/><circle class="cls-2" cx="1069.39" cy="175.02" r="3.5"/><circle class="cls-2" cx="1069.39" cy="261.15" r="3.5"/><circle class="cls-2" cx="1225" cy="175.02" r="3.5"/><circle class="cls-2" cx="1225" cy="261.15" r="3.5"/><circle class="cls-2" cx="1186.29" cy="58.12" r="3.5"/><circle class="cls-2" cx="1186.29" cy="144.25" r="3.5"/><circle class="cls-2" cx="1341.91" cy="58.12" r="3.5"/><circle class="cls-2" cx="1341.91" cy="144.25" r="3.5"/><circle class="cls-2" cx="970.68" cy="58.12" r="3.5"/><circle class="cls-2" cx="970.68" cy="144.25" r="3.5"/><circle class="cls-2" cx="1126.29" cy="58.12" r="3.5"/><circle class="cls-2" cx="1126.29" cy="144.25" r="3.5"/><circle class="cls-2" cx="244.99" cy="195.02" r="3.5"/><circle class="cls-2" cx="244.99" cy="281.15" r="3.5"/><circle class="cls-2" cx="400.6" cy="195.02" r="3.5"/><circle class="cls-2" cx="400.6" cy="281.15" r="3.5"/><circle class="cls-2" cx="556.22" cy="195.02" r="3.5"/><circle class="cls-2" cx="556.22" cy="281.15" r="3.5"/><circle class="cls-2" cx="361.9" cy="78.12" r="3.5"/><circle class="cls-2" cx="361.9" cy="164.25" r="3.5"/><circle class="cls-2" cx="517.51" cy="78.12" r="3.5"/><circle class="cls-2" cx="517.51" cy="164.25" r="3.5"/><circle class="cls-2" cx="673.12" cy="78.12" r="3.5"/><circle class="cls-2" cx="673.12" cy="164.25" r="3.5"/></g></g></svg>