<svg xmlns="http://www.w3.org/2000/svg" viewBox="0 0 769.49 494.12"><defs><style>.cls-1,.cls-3,.cls-5,.cls-6,.cls-7{fill:none;}.cls-1{stroke:#231f20;}.cls-1,.cls-7{stroke-miterlimit:10;}.cls-2{fill:#231f20;}.cls-3,.cls-5{stroke:#8d8d8d;stroke-dasharray:2;}.cls-3,.cls-5,.cls-6{stroke-linejoin:round;}.cls-10,.cls-4,.cls-9{font-size:15px;}.cls-11,.cls-4{font-family:Helvetica-Bold, Helvetica;font-weight:700;}.cls-5,.cls-6,.cls-7{stroke-width:1.5px;}.cls-6{stroke:#000;}.cls-7{stroke:#ec1c24;}.cls-8{fill:#ec1c24;}.cls-10,.cls-11,.cls-9{fill:#ec1e27;}.cls-10,.cls-9{font-family:Helvetica;}.cls-10{letter-spacing:0em;}.cls-11{font-size:19px;}</style></defs><g id="Layer_2" data-name="Layer 2"><g id="Layer_1-2" data-name="Layer 1"><polyline class="cls-1" points="4.22 329.69 313.23 20.69 763.52 20.69"/><polygon class="cls-2" points="8.83 330.33 5.09 328.82 3.59 325.09 0 333.92 8.83 330.33"/><polygon class="cls-2" points="760.71 24.39 762.28 20.69 760.71 16.98 769.49 20.69 760.71 24.39"/><line class="cls-1" x1="313.23" y1="398.05" x2="313.23" y2="488.15"/><polygon class="cls-2" points="309.52 485.35 313.23 486.92 316.93 485.35 313.23 494.13 309.52 485.35"/><line class="cls-1" x1="313.23" y1="20.69" x2="313.23" y2="178.32"/><line class="cls-3" x1="313.23" y1="178.32" x2="313.23" y2="398.05"/><text class="cls-4" transform="translate(5.7 313.55)">j</text><text class="cls-4" transform="translate(750.61 12.9)">i</text><text class="cls-4" transform="translate(322.8 478.03)">k</text><polyline class="cls-5" points="335.24 398.05 421.37 311.92 452.14 281.15 538.27 195.02 569.05 164.24"/><polyline class="cls-5" points="296.53 281.15 366.01 281.15 452.14 281.15 521.62 281.15 607.75 281.15"/><polyline class="cls-5" points="413.43 164.24 482.92 164.24 569.05 164.24 638.53 164.24 724.66 164.24"/><polyline class="cls-5" points="179.63 398.05 265.76 311.92 296.53 281.15 382.65 195.02 413.43 164.24"/><line class="cls-5" x1="296.53" y1="195.02" x2="296.53" y2="281.15"/><line class="cls-5" x1="452.14" y1="195.02" x2="452.14" y2="281.15"/><line class="cls-5" x1="413.43" y1="78.11" x2="413.43" y2="164.24"/><line class="cls-5" x1="569.05" y1="78.11" x2="569.05" y2="164.24"/><polyline class="cls-6" points="607.76 195.02 638.53 164.24 724.66 78.11 569.05 78.11 413.43 78.11 296.53 195.02 179.63 311.92 265.76 311.92 335.24 311.92 421.37 311.92 490.85 311.92 521.62 281.15 607.75 195.02"/><polyline class="cls-6" points="335.24 311.92 366.01 281.15 452.14 195.02 482.92 164.24 569.05 78.11"/><polyline class="cls-6" points="296.53 195.02 382.65 195.02 452.14 195.02 538.27 195.02 607.75 195.02 607.76 195.02"/><polyline class="cls-6" points="607.76 281.14 724.66 164.24 724.66 78.11"/><polyline class="cls-6" points="179.63 311.92 179.63 398.05 335.24 398.05 490.85 398.05 607.75 281.15 607.76 281.15"/><line class="cls-6" x1="335.24" y1="311.92" x2="335.24" y2="398.05"/><line class="cls-6" x1="490.85" y1="311.92" x2="490.85" y2="398.05"/><polyline class="cls-6" points="607.76 281.15 607.76 281.14 607.76 195.02"/><line class="cls-7" x1="296.53" y1="175.44" x2="296.53" y2="300.66"/><circle class="cls-8" cx="296.53" cy="175.44" r="2.03"/><circle class="cls-8" cx="296.53" cy="300.66" r="2.03"/><line class="cls-7" x1="413.43" y1="58.57" x2="413.43" y2="183.79"/><circle class="cls-8" cx="413.43" cy="58.57" r="2.03"/><circle class="cls-8" cx="413.43" cy="183.79" r="2.03"/><line class="cls-7" x1="569.04" y1="58.57" x2="569.04" y2="183.79"/><circle class="cls-8" cx="569.04" cy="58.57" r="2.03"/><circle class="cls-8" cx="569.04" cy="183.79" r="2.03"/><line class="cls-7" x1="724.66" y1="58.57" x2="724.66" y2="183.79"/><circle class="cls-8" cx="724.66" cy="58.57" r="2.03"/><circle class="cls-8" cx="724.66" cy="183.79" r="2.03"/><line class="cls-7" x1="452.14" y1="175.44" x2="452.14" y2="300.66"/><circle class="cls-8" cx="452.14" cy="175.44" r="2.03"/><circle class="cls-8" cx="452.14" cy="300.66" r="2.03"/><line class="cls-7" x1="607.75" y1="175.44" x2="607.75" y2="300.66"/><circle class="cls-8" cx="607.75" cy="175.44" r="2.03"/><circle class="cls-8" cx="607.75" cy="300.66" r="2.03"/><line class="cls-7" x1="490.88" y1="292.79" x2="490.88" y2="418.01"/><circle class="cls-8" cx="490.88" cy="292.79" r="2.03"/><circle class="cls-8" cx="490.88" cy="418.01" r="2.03"/><line class="cls-7" x1="335.24" y1="292.79" x2="335.24" y2="418.01"/><circle class="cls-8" cx="335.24" cy="292.79" r="2.03"/><circle class="cls-8" cx="335.24" cy="418.01" r="2.03"/><line class="cls-7" x1="179.62" y1="292.96" x2="179.62" y2="418.18"/><circle class="cls-8" cx="179.62" cy="292.96" r="2.03"/><circle class="cls-8" cx="179.62" cy="418.18" r="2.03"/><text class="cls-9" transform="translate(259.82 253.12)">(1,2)</text><text class="cls-9" transform="translate(376.73 136.24)">(1,1)</text><text class="cls-9" transform="translate(532.34 136.24)">(2,1)</text><text class="cls-9" transform="translate(678.66 136.24)">(N</text><text class="cls-9" transform="translate(694.48 141.24) scale(0.58)">pi</text><text class="cls-10" transform="translate(701.29 136.24)">,1)</text><text class="cls-9" transform="translate(415.44 253.12)">(2,2)</text><text class="cls-9" transform="translate(561.75 253.12)">(N</text><text class="cls-9" transform="translate(577.58 258.11) scale(0.58)">pi</text><text class="cls-10" transform="translate(584.39 253.12)">,2)</text><text class="cls-9" transform="translate(435.58 370.46)">(N</text><text class="cls-9" transform="translate(451.41 375.46) scale(0.58)">pi</text><text class="cls-10" transform="translate(458.21 370.46)">,N</text><text class="cls-9" transform="translate(473.21 375.46) scale(0.58)">pj</text><text class="cls-9" transform="translate(480.02 370.46)">)</text><text class="cls-9" transform="translate(289.24 370.46)">(2,N</text><text class="cls-9" transform="translate(317.57 375.46) scale(0.58)">pj</text><text class="cls-9" transform="translate(324.38 370.46)">)</text><text class="cls-9" transform="translate(133.62 370.46)">(1,N</text><text class="cls-9" transform="translate(161.96 375.46) scale(0.58)">pj</text><text class="cls-9" transform="translate(168.77 370.46)">)</text><line class="cls-7" x1="20.03" y1="53.12" y2="53.12"/><text class="cls-11" transform="translate(30.15 59.95)">Pillars</text></g></g></svg>