<svg xmlns="http://www.w3.org/2000/svg" viewBox="0 0 633.92 555.07"><defs><style>.cls-1{font-size:24px;}.cls-1,.cls-2{font-family:Helvetica-Bold, Helvetica;font-weight:700;}.cls-2{font-size:18px;}.cls-3{fill:none;stroke:#000;stroke-miterlimit:10;stroke-width:1.5px;}.cls-4{letter-spacing:-0.05em;}.cls-5{fill:#ec1c24;}</style></defs><g id="Layer_2" data-name="Layer 2"><g id="Layer_1-2" data-name="Layer 1"><text class="cls-1" transform="translate(218.65 20.64)">Structured Grids </text><text class="cls-1" transform="translate(238.66 303.7)">Unstructured </text><text class="cls-2" transform="translate(30.14 228.22)">Cartesian </text><rect class="cls-3" x="0.75" y="53.38" width="145.82" height="145.82"/><line class="cls-3" x1="0.75" y1="174.89" x2="146.57" y2="174.89"/><line class="cls-3" x1="0.75" y1="150.59" x2="146.57" y2="150.59"/><line class="cls-3" x1="0.75" y1="126.29" x2="146.57" y2="126.29"/><line class="cls-3" x1="0.75" y1="101.98" x2="146.57" y2="101.98"/><line class="cls-3" x1="0.75" y1="77.68" x2="146.57" y2="77.68"/><line class="cls-3" x1="122.27" y1="53.38" x2="122.27" y2="199.19"/><line class="cls-3" x1="97.96" y1="53.38" x2="97.96" y2="199.19"/><line class="cls-3" x1="73.66" y1="53.38" x2="73.66" y2="199.19"/><line class="cls-3" x1="49.36" y1="53.38" x2="49.36" y2="199.19"/><line class="cls-3" x1="25.05" y1="53.38" x2="25.05" y2="199.19"/><text class="cls-2" transform="translate(513.24 228.47)">Curvilinear</text><path class="cls-3" d="M510.3,53.63c48.15,4.86,77.88,47.38,122.85,61.74q0,42,0,84.08c-48.61,0-97.22-.09-145.82,0C489.51,149.88,508.14,103.2,510.3,53.63Z"/><path class="cls-3" d="M489.12,175.11c48.11-1.1,96,4.13,144,4.79"/><path class="cls-3" d="M493.36,150.82c47.25,0,92.83,12.73,139.79,16.18"/><path class="cls-3" d="M498.82,126.54c46.67,2.41,88.55,23.53,134.34,30.87"/><path class="cls-3" d="M504.29,102.26c46.65,4.78,83.95,34.41,128.87,45.56"/><path class="cls-3" d="M508.52,78c47.19,6.14,80.06,43,124.64,57"/><path class="cls-3" d="M610.13,106.61c.26,31-1.54,61.87-1.28,92.85"/><path class="cls-3" d="M589.93,94.09c-.08,35.28-5.31,70.08-5.38,105.35"/><path class="cls-3" d="M571.19,80.16c-.87,40.13-10.06,79.14-10.94,119.26"/><path class="cls-3" d="M552.57,67.2c-1.76,44.67-14.84,87.55-16.61,132.21"/><path class="cls-3" d="M532.72,57.57c-2.32,48.1-18.73,93.75-21.06,141.84"/><text class="cls-2" transform="translate(201.75 228.34)">Regular</text><rect class="cls-3" x="192.73" y="53.5" width="85.06" height="145.82"/><line class="cls-3" x1="260.78" y1="199.32" x2="260.78" y2="53.5"/><line class="cls-3" x1="243.77" y1="199.32" x2="243.77" y2="53.5"/><line class="cls-3" x1="226.75" y1="199.32" x2="226.75" y2="53.5"/><line class="cls-3" x1="209.74" y1="199.32" x2="209.74" y2="53.5"/><line class="cls-3" x1="192.73" y1="77.8" x2="277.79" y2="77.8"/><line class="cls-3" x1="192.73" y1="102.11" x2="277.79" y2="102.11"/><line class="cls-3" x1="192.73" y1="126.41" x2="277.79" y2="126.41"/><line class="cls-3" x1="192.73" y1="150.71" x2="277.79" y2="150.71"/><line class="cls-3" x1="192.73" y1="175.02" x2="277.79" y2="175.02"/><text class="cls-2" transform="translate(335.84 228.47)">Rectilinear</text><rect class="cls-3" x="323.95" y="53.63" width="115.82" height="145.82"/><line class="cls-3" x1="323.95" y1="97" x2="439.77" y2="97"/><line class="cls-3" x1="323.95" y1="131.71" x2="439.77" y2="131.71"/><line class="cls-3" x1="323.95" y1="159.47" x2="439.77" y2="159.47"/><line class="cls-3" x1="323.95" y1="181.68" x2="439.77" y2="181.68"/><line class="cls-3" x1="350.22" y1="53.63" x2="350.22" y2="199.44"/><line class="cls-3" x1="372.29" y1="53.63" x2="372.29" y2="199.44"/><line class="cls-3" x1="390.83" y1="53.63" x2="390.83" y2="199.44"/><line class="cls-3" x1="406.42" y1="53.63" x2="406.42" y2="199.44"/><line class="cls-3" x1="419.52" y1="53.63" x2="419.52" y2="199.44"/><line class="cls-3" x1="430.52" y1="53.63" x2="430.52" y2="199.44"/><text class="cls-2" transform="translate(58.89 524.82)"><tspan class="cls-4">T</tspan><tspan x="10.01" y="0">riangulated Irregular Network (TIN)</tspan></text><text class="cls-2" transform="translate(468.42 524.82)">Hybrid</text><line class="cls-3" x1="156.44" y1="337.96" x2="135.1" y2="379.08"/><line class="cls-3" x1="211.13" y1="337.44" x2="156.44" y2="337.96"/><line class="cls-3" x1="289.07" y1="352.41" x2="211.13" y2="337.44"/><line class="cls-3" x1="193.58" y1="375.12" x2="156.44" y2="337.96"/><line class="cls-3" x1="211.13" y1="337.44" x2="193.58" y2="375.12"/><line class="cls-3" x1="289.07" y1="352.41" x2="242.62" y2="380.8"/><line class="cls-3" x1="211.13" y1="337.44" x2="242.62" y2="380.8"/><line class="cls-3" x1="193.58" y1="375.12" x2="242.62" y2="380.8"/><line class="cls-3" x1="135.1" y1="379.08" x2="193.58" y2="375.12"/><line class="cls-3" x1="175.01" y1="420.54" x2="135.1" y2="379.08"/><line class="cls-3" x1="193.58" y1="375.12" x2="175.01" y2="420.54"/><line class="cls-3" x1="235.39" y1="444.28" x2="193.58" y2="375.12"/><line class="cls-3" x1="175.01" y1="420.54" x2="235.39" y2="444.28"/><line class="cls-3" x1="242.62" y1="380.8" x2="235.39" y2="444.28"/><line class="cls-3" x1="265.84" y1="461.83" x2="242.62" y2="380.8"/><line class="cls-3" x1="289.07" y1="352.41" x2="297.32" y2="405.05"/><line class="cls-3" x1="242.62" y1="380.8" x2="297.32" y2="405.05"/><line class="cls-3" x1="265.84" y1="461.83" x2="297.32" y2="405.05"/><line class="cls-3" x1="235.39" y1="444.28" x2="265.84" y2="461.83"/><line class="cls-3" x1="135.1" y1="379.08" x2="127.52" y2="432.41"/><line class="cls-3" x1="175.01" y1="420.54" x2="127.52" y2="432.41"/><line class="cls-3" x1="157.45" y1="477.83" x2="127.52" y2="432.41"/><line class="cls-3" x1="175.01" y1="420.54" x2="157.45" y2="477.83"/><line class="cls-3" x1="199.78" y1="462.34" x2="175.01" y2="420.54"/><line class="cls-3" x1="235.39" y1="444.28" x2="199.78" y2="462.34"/><line class="cls-3" x1="157.45" y1="477.83" x2="199.78" y2="462.34"/><line class="cls-3" x1="226.87" y1="490.21" x2="199.78" y2="462.34"/><line class="cls-3" x1="157.45" y1="477.83" x2="226.87" y2="490.21"/><line class="cls-3" x1="265.84" y1="461.83" x2="226.87" y2="490.21"/><line class="cls-3" x1="199.78" y1="462.34" x2="265.84" y2="461.83"/><circle class="cls-5" cx="156.44" cy="337.96" r="2.47"/><circle class="cls-5" cx="135.1" cy="379.08" r="2.47"/><circle class="cls-5" cx="127.52" cy="432.41" r="2.47"/><circle class="cls-5" cx="175.01" cy="420.54" r="2.47"/><circle class="cls-5" cx="157.45" cy="477.83" r="2.47"/><circle class="cls-5" cx="199.78" cy="462.34" r="2.47"/><circle class="cls-5" cx="226.87" cy="490.21" r="2.47"/><circle class="cls-5" cx="265.84" cy="461.83" r="2.47"/><circle class="cls-5" cx="235.39" cy="444.28" r="2.47"/><circle class="cls-5" cx="242.62" cy="380.8" r="2.47"/><circle class="cls-5" cx="297.32" cy="405.05" r="2.47"/><circle class="cls-5" cx="193.58" cy="375.12" r="2.47"/><circle class="cls-5" cx="211.13" cy="337.44" r="2.47"/><circle class="cls-5" cx="289.07" cy="352.41" r="2.47"/><rect class="cls-3" x="418.07" y="334.97" width="157.7" height="157.7"/><line class="cls-3" x1="418.07" y1="440.11" x2="575.77" y2="440.11"/><line class="cls-3" x1="418.07" y1="387.54" x2="575.77" y2="387.54"/><line class="cls-3" x1="523.2" y1="334.97" x2="523.2" y2="492.68"/><line class="cls-3" x1="470.64" y1="334.97" x2="470.64" y2="492.68"/><line class="cls-3" x1="490.13" y1="403.04" x2="470.64" y2="387.54"/><line class="cls-3" x1="498.81" y1="387.54" x2="490.13" y2="403.04"/><line class="cls-3" x1="508.09" y1="408.15" x2="498.81" y2="387.54"/><line class="cls-3" x1="523.2" y1="387.54" x2="508.09" y2="408.15"/><line class="cls-3" x1="490.13" y1="403.04" x2="508.09" y2="408.15"/><line class="cls-3" x1="470.64" y1="412.75" x2="490.13" y2="403.04"/><line class="cls-3" x1="493.19" y1="420.41" x2="490.13" y2="403.04"/><line class="cls-3" x1="508.09" y1="408.15" x2="493.19" y2="420.41"/><line class="cls-3" x1="523.2" y1="414.28" x2="508.09" y2="408.15"/><line class="cls-3" x1="470.64" y1="412.75" x2="493.19" y2="420.41"/><line class="cls-3" x1="470.64" y1="440.11" x2="493.19" y2="420.41"/><line class="cls-3" x1="494.47" y1="440.11" x2="493.19" y2="420.41"/><line class="cls-3" x1="510.81" y1="440.11" x2="493.19" y2="420.41"/><line class="cls-3" x1="508.09" y1="408.15" x2="510.81" y2="440.11"/><line class="cls-3" x1="523.2" y1="414.28" x2="510.81" y2="440.11"/></g></g></svg>