<svg xmlns="http://www.w3.org/2000/svg" viewBox="0 0 864.54 203.9"><defs><style>.cls-1{fill:none;stroke:#231f20;stroke-miterlimit:10;stroke-width:1.73px;}.cls-2{font-size:24px;font-family:Helvetica-Bold, Helvetica;font-weight:700;}</style></defs><g id="Layer_2" data-name="Layer 2"><g id="Layer_1-2" data-name="Layer 1"><rect class="cls-1" x="0.86" y="0.86" width="410.76" height="153.48"/><line class="cls-1" x1="0.86" y1="140.4" x2="411.63" y2="140.4"/><line class="cls-1" x1="0.86" y1="126.44" x2="411.63" y2="126.44"/><line class="cls-1" x1="0.86" y1="112.49" x2="411.63" y2="112.49"/><line class="cls-1" x1="0.86" y1="98.54" x2="411.63" y2="98.54"/><line class="cls-1" x1="0.86" y1="84.58" x2="411.63" y2="84.58"/><line class="cls-1" x1="0.86" y1="70.63" x2="411.63" y2="70.63"/><line class="cls-1" x1="0.86" y1="56.68" x2="411.63" y2="56.68"/><line class="cls-1" x1="0.86" y1="42.72" x2="411.63" y2="42.72"/><line class="cls-1" x1="0.86" y1="28.77" x2="411.63" y2="28.77"/><line class="cls-1" x1="0.86" y1="14.82" x2="411.63" y2="14.82"/><line class="cls-1" x1="374.29" y1="0.86" x2="374.29" y2="154.35"/><line class="cls-1" x1="336.94" y1="0.86" x2="336.94" y2="154.35"/><line class="cls-1" x1="299.6" y1="0.86" x2="299.6" y2="154.35"/><line class="cls-1" x1="262.26" y1="0.86" x2="262.26" y2="154.35"/><line class="cls-1" x1="224.92" y1="0.86" x2="224.92" y2="154.35"/><line class="cls-1" x1="187.58" y1="0.86" x2="187.58" y2="154.35"/><line class="cls-1" x1="150.23" y1="0.86" x2="150.23" y2="154.35"/><line class="cls-1" x1="112.89" y1="0.86" x2="112.89" y2="154.35"/><line class="cls-1" x1="75.55" y1="0.86" x2="75.55" y2="154.35"/><line class="cls-1" x1="38.21" y1="0.86" x2="38.21" y2="154.35"/><rect class="cls-1" x="452.91" y="0.86" width="410.76" height="153.48"/><line class="cls-1" x1="452.91" y1="29.61" x2="863.67" y2="29.61"/><line class="cls-1" x1="452.91" y1="53.77" x2="863.67" y2="53.77"/><line class="cls-1" x1="452.91" y1="74.07" x2="863.67" y2="74.07"/><line class="cls-1" x1="452.91" y1="91.13" x2="863.67" y2="91.13"/><line class="cls-1" x1="452.91" y1="105.47" x2="863.67" y2="105.47"/><line class="cls-1" x1="452.91" y1="117.51" x2="863.67" y2="117.51"/><line class="cls-1" x1="452.91" y1="127.64" x2="863.67" y2="127.64"/><line class="cls-1" x1="452.91" y1="136.14" x2="863.67" y2="136.14"/><line class="cls-1" x1="452.91" y1="143.29" x2="863.67" y2="143.29"/><line class="cls-1" x1="452.91" y1="149.3" x2="863.67" y2="149.3"/><line class="cls-1" x1="799.75" y1="0.86" x2="799.75" y2="154.35"/><line class="cls-1" x1="743.19" y1="0.86" x2="743.19" y2="154.35"/><line class="cls-1" x1="693.13" y1="0.86" x2="693.13" y2="154.35"/><line class="cls-1" x1="648.83" y1="0.86" x2="648.83" y2="154.35"/><line class="cls-1" x1="609.63" y1="0.86" x2="609.63" y2="154.35"/><line class="cls-1" x1="574.93" y1="0.86" x2="574.93" y2="154.35"/><line class="cls-1" x1="544.23" y1="0.86" x2="544.23" y2="154.35"/><line class="cls-1" x1="517.06" y1="0.86" x2="517.06" y2="154.35"/><line class="cls-1" x1="493.02" y1="0.86" x2="493.02" y2="154.35"/><line class="cls-1" x1="471.74" y1="0.86" x2="471.74" y2="154.35"/><text class="cls-2" transform="translate(160.25 192.36)">Uniform</text><text class="cls-2" transform="translate(584.97 192.36)">Non-Uniform</text></g></g></svg>