<svg xmlns="http://www.w3.org/2000/svg" xmlns:xlink="http://www.w3.org/1999/xlink" viewBox="0 0 1965 453"><defs><style>.cls-1{fill:url(#linear-gradient);}.cls-2{fill:url(#linear-gradient-2);}.cls-3{fill:url(#linear-gradient-3);}.cls-4{fill:url(#linear-gradient-4);}.cls-5{fill:url(#linear-gradient-5);}.cls-6{fill:url(#linear-gradient-6);}.cls-7{fill:url(#linear-gradient-7);}.cls-8{fill:url(#linear-gradient-8);}.cls-9{fill:url(#linear-gradient-9);}.cls-10{fill:url(#linear-gradient-10);}.cls-11{fill:url(#linear-gradient-11);}.cls-12{fill:url(#linear-gradient-12);}.cls-13{fill:url(#linear-gradient-13);}.cls-14{fill:url(#linear-gradient-14);}.cls-15{fill:url(#linear-gradient-15);}.cls-16{fill:url(#linear-gradient-16);}.cls-17{fill:url(#linear-gradient-17);}.cls-18{fill:url(#linear-gradient-18);}.cls-19{fill:url(#linear-gradient-19);}.cls-20{fill:url(#linear-gradient-20);}.cls-21{fill:url(#linear-gradient-21);}.cls-22{fill:url(#linear-gradient-22);}.cls-23{fill:url(#linear-gradient-23);}.cls-24{fill:url(#linear-gradient-24);}.cls-25{fill:url(#linear-gradient-25);}.cls-26{fill:url(#linear-gradient-26);}.cls-27{fill:url(#linear-gradient-27);}.cls-28{fill:url(#linear-gradient-28);}.cls-29{fill:url(#linear-gradient-29);}.cls-30{fill:url(#linear-gradient-30);}.cls-31{fill:url(#linear-gradient-31);}.cls-32{fill:url(#linear-gradient-32);}.cls-33{fill:url(#linear-gradient-33);}.cls-34{fill:url(#linear-gradient-34);}.cls-35{fill:url(#radial-gradient);}.cls-36{fill:url(#linear-gradient-35);}.cls-37{fill:url(#radial-gradient-2);}.cls-38{fill:#000096;}.cls-39{fill:#304071;}.cls-40{fill:#60804b;}.cls-41{fill:#8fbf26;}.cls-42{fill:#bfff00;}.cls-43{opacity:0.65;}.cls-44{fill:#4f4f4f;}</style><linearGradient id="linear-gradient" x1="1930.92" y1="-151.91" x2="-15.4" y2="284.73" gradientUnits="userSpaceOnUse"><stop offset="0" stop-color="#e9e9ff"/><stop offset="1" stop-color="#fbffe9"/></linearGradient><linearGradient id="linear-gradient-2" x1="1997.09" y1="143.05" x2="50.77" y2="579.7" xlink:href="#linear-gradient"/><linearGradient id="linear-gradient-3" x1="2021.28" y1="250.88" x2="74.96" y2="687.52" xlink:href="#linear-gradient"/><linearGradient id="linear-gradient-4" x1="1977.03" y1="53.64" x2="30.71" y2="490.29" xlink:href="#linear-gradient"/><linearGradient id="linear-gradient-5" x1="1952.71" y1="-54.76" x2="6.39" y2="381.88" xlink:href="#linear-gradient"/><linearGradient id="linear-gradient-6" x1="1919.96" y1="-200.74" x2="-26.36" y2="235.9" xlink:href="#linear-gradient"/><linearGradient id="linear-gradient-7" x1="1928.52" y1="-162.59" x2="-17.8" y2="274.06" xlink:href="#linear-gradient"/><linearGradient id="linear-gradient-8" x1="1944.15" y1="-92.92" x2="-2.17" y2="343.73" xlink:href="#linear-gradient"/><linearGradient id="linear-gradient-9" x1="2036.95" y1="320.73" x2="90.63" y2="757.37" xlink:href="#linear-gradient"/><linearGradient id="linear-gradient-10" x1="1971.32" y1="28.19" x2="25" y2="464.84" xlink:href="#linear-gradient"/><linearGradient id="linear-gradient-11" x1="2028.39" y1="282.57" x2="82.07" y2="719.22" xlink:href="#linear-gradient"/><linearGradient id="linear-gradient-12" x1="1961.27" y1="-16.61" x2="14.95" y2="420.04" xlink:href="#linear-gradient"/><linearGradient id="linear-gradient-13" x1="1937.08" y1="-124.43" x2="-9.24" y2="312.21" xlink:href="#linear-gradient"/><linearGradient id="linear-gradient-14" x1="1954.21" y1="-48.11" x2="7.88" y2="388.54" xlink:href="#linear-gradient"/><linearGradient id="linear-gradient-15" x1="1986.95" y1="97.86" x2="40.63" y2="534.5" xlink:href="#linear-gradient"/><linearGradient id="linear-gradient-16" x1="1978.4" y1="59.72" x2="32.07" y2="496.36" xlink:href="#linear-gradient"/><linearGradient id="linear-gradient-17" x1="1969.84" y1="21.56" x2="23.51" y2="458.21" xlink:href="#linear-gradient"/><linearGradient id="linear-gradient-18" x1="2019.83" y1="244.42" x2="73.51" y2="681.06" xlink:href="#linear-gradient"/><linearGradient id="linear-gradient-19" x1="1995.51" y1="136.01" x2="49.19" y2="572.66" xlink:href="#linear-gradient"/><linearGradient id="linear-gradient-20" x1="1945.65" y1="-86.26" x2="-0.68" y2="350.38" xlink:href="#linear-gradient"/><linearGradient id="linear-gradient-21" x1="1994.15" y1="129.95" x2="47.83" y2="566.6" xlink:href="#linear-gradient"/><linearGradient id="linear-gradient-22" x1="1962.76" y1="-9.97" x2="16.44" y2="426.68" xlink:href="#linear-gradient"/><linearGradient id="linear-gradient-23" x1="2002.72" y1="168.12" x2="56.39" y2="604.77" xlink:href="#linear-gradient"/><linearGradient id="linear-gradient-24" x1="1985.59" y1="91.8" x2="39.27" y2="528.44" xlink:href="#linear-gradient"/><linearGradient id="linear-gradient-25" x1="2044.57" y1="354.67" x2="98.24" y2="791.31" xlink:href="#linear-gradient"/><linearGradient id="linear-gradient-26" x1="1979.88" y1="66.35" x2="33.56" y2="502.99" xlink:href="#linear-gradient"/><linearGradient id="linear-gradient-27" x1="1988.44" y1="104.5" x2="42.12" y2="541.15" xlink:href="#linear-gradient"/><linearGradient id="linear-gradient-28" x1="2012.63" y1="212.32" x2="66.31" y2="648.97" xlink:href="#linear-gradient"/><linearGradient id="linear-gradient-29" x1="1968.47" y1="15.48" x2="22.15" y2="452.13" xlink:href="#linear-gradient"/><linearGradient id="linear-gradient-30" x1="2004.07" y1="174.17" x2="57.75" y2="610.81" xlink:href="#linear-gradient"/><linearGradient id="linear-gradient-31" x1="1935.5" y1="-131.47" x2="-10.82" y2="305.17" xlink:href="#linear-gradient"/><linearGradient id="linear-gradient-32" x1="2011.27" y1="206.26" x2="64.95" y2="642.91" xlink:href="#linear-gradient"/><linearGradient id="linear-gradient-33" x1="1911.32" y1="-239.3" x2="-35.01" y2="197.35" xlink:href="#linear-gradient"/><linearGradient id="linear-gradient-34" x1="1959.82" y1="-23.07" x2="13.5" y2="413.58" xlink:href="#linear-gradient"/><radialGradient id="radial-gradient" cx="1965" cy="226.5" r="128.35" gradientTransform="translate(0 139.24) scale(1 0.39)" gradientUnits="userSpaceOnUse"><stop offset="0.25" stop-color="#fff" stop-opacity="0"/><stop offset="1" stop-color="#757575" stop-opacity="0.3"/></radialGradient><linearGradient id="linear-gradient-35" x1="1966.3" y1="5.79" x2="19.98" y2="442.44" xlink:href="#linear-gradient"/><radialGradient id="radial-gradient-2" cx="982.5" cy="226.5" r="713.8" xlink:href="#radial-gradient"/></defs><g id="Layer_2" data-name="Layer 2"><g id="Layer_1-2" data-name="Layer 1"><path class="cls-1" d="M178.14,109.53V0h1V109.53a3.74,3.74,0,0,1,3.21,3.22H353.56a3.74,3.74,0,0,1,3.21-3.22V0h1V109.53a3.76,3.76,0,0,1,3.22,3.22h171.2a3.76,3.76,0,0,1,3.22-3.22V0h1V109.53a3.74,3.74,0,0,1,3.21,3.22H710.83a3.74,3.74,0,0,1,3.21-3.22V0h1V109.53a3.75,3.75,0,0,1,3.22,3.22H889.59a3.73,3.73,0,0,1,3.09-3.2V0h1V109.52a3.74,3.74,0,0,1,3.34,3.23H1068.1a3.76,3.76,0,0,1,3.22-3.22V0h1V109.53a3.74,3.74,0,0,1,3.21,3.22h171.21a3.74,3.74,0,0,1,3.21-3.22V0h1V109.53a3.75,3.75,0,0,1,3.22,3.22h171.21a3.73,3.73,0,0,1,3.21-3.22V0h1V109.53a3.76,3.76,0,0,1,3.22,3.22H1604a3.76,3.76,0,0,1,3.22-3.22V0h1V109.53a3.74,3.74,0,0,1,3.21,3.22h171.21a3.74,3.74,0,0,1,3.21-3.22V0h1V109.53a3.76,3.76,0,0,1,3.22,3.22H1965V45a45,45,0,0,0-45-45H45A45,45,0,0,0,0,45v67.75H174.92A3.76,3.76,0,0,1,178.14,109.53Z"/><path class="cls-2" d="M1786.86,117V222.78a3.76,3.76,0,0,1,3.22,3.22H1965V113.75H1790.08A3.76,3.76,0,0,1,1786.86,117Z"/><path class="cls-3" d="M1786.86,230.22V336a3.76,3.76,0,0,1,3.22,3.22H1965V227H1790.08A3.76,3.76,0,0,1,1786.86,230.22Z"/><path class="cls-4" d="M532.19,340.25H361a3.76,3.76,0,0,1-3.22,3.22V453H535.41V343.47A3.76,3.76,0,0,1,532.19,340.25Z"/><path class="cls-5" d="M532.19,227H361a3.76,3.76,0,0,1-3.22,3.22V336a3.76,3.76,0,0,1,3.22,3.22h171.2a3.76,3.76,0,0,1,3.22-3.22V230.22A3.76,3.76,0,0,1,532.19,227Z"/><path class="cls-6" d="M353.56,113.75H182.35a3.74,3.74,0,0,1-3.21,3.22V222.78a3.74,3.74,0,0,1,3.21,3.22H353.56a3.74,3.74,0,0,1,3.21-3.22V117A3.74,3.74,0,0,1,353.56,113.75Z"/><path class="cls-7" d="M532.19,113.75H361a3.76,3.76,0,0,1-3.22,3.22V222.78A3.76,3.76,0,0,1,361,226h171.2a3.76,3.76,0,0,1,3.22-3.22V117A3.76,3.76,0,0,1,532.19,113.75Z"/><path class="cls-8" d="M353.56,227H182.35a3.74,3.74,0,0,1-3.21,3.22V336a3.74,3.74,0,0,1,3.21,3.22H353.56a3.74,3.74,0,0,1,3.21-3.22V230.22A3.74,3.74,0,0,1,353.56,227Z"/><path class="cls-9" d="M1782.65,340.25H1611.44a3.74,3.74,0,0,1-3.21,3.22V453h177.63V343.47A3.74,3.74,0,0,1,1782.65,340.25Z"/><path class="cls-10" d="M1425.38,113.75H1254.17A3.76,3.76,0,0,1,1251,117V222.78a3.75,3.75,0,0,1,3.22,3.22h171.21a3.73,3.73,0,0,1,3.21-3.22V117A3.74,3.74,0,0,1,1425.38,113.75Z"/><path class="cls-11" d="M1604,340.25h-171.2a3.76,3.76,0,0,1-3.22,3.22V453h177.64V343.47A3.76,3.76,0,0,1,1604,340.25Z"/><path class="cls-12" d="M710.83,227H539.62a3.74,3.74,0,0,1-3.21,3.22V336a3.74,3.74,0,0,1,3.21,3.22H710.83A3.74,3.74,0,0,1,714,336V230.22A3.74,3.74,0,0,1,710.83,227Z"/><path class="cls-13" d="M710.83,113.75H539.62a3.74,3.74,0,0,1-3.21,3.22V222.78a3.74,3.74,0,0,1,3.21,3.22H710.83a3.74,3.74,0,0,1,3.21-3.22V117A3.74,3.74,0,0,1,710.83,113.75Z"/><path class="cls-14" d="M1068.1,113.75H897a3.74,3.74,0,0,1-3.34,3.23V222.77A3.74,3.74,0,0,1,897,226H1068.1a3.76,3.76,0,0,1,3.22-3.22V117A3.76,3.76,0,0,1,1068.1,113.75Z"/><path class="cls-15" d="M1246.74,227H1075.53a3.74,3.74,0,0,1-3.21,3.22V336a3.74,3.74,0,0,1,3.21,3.22h171.21A3.74,3.74,0,0,1,1250,336V230.22A3.74,3.74,0,0,1,1246.74,227Z"/><path class="cls-16" d="M1068.1,227H897a3.74,3.74,0,0,1-3.34,3.23V336a3.74,3.74,0,0,1,3.34,3.23H1068.1a3.76,3.76,0,0,1,3.22-3.22V230.22A3.76,3.76,0,0,1,1068.1,227Z"/><path class="cls-17" d="M889.59,227H718.26a3.75,3.75,0,0,1-3.22,3.22V336a3.75,3.75,0,0,1,3.22,3.22H889.59a3.73,3.73,0,0,1,3.09-3.2V230.2A3.73,3.73,0,0,1,889.59,227Z"/><path class="cls-18" d="M1425.38,340.25H1254.17a3.76,3.76,0,0,1-3.22,3.22V453h177.64V343.47A3.74,3.74,0,0,1,1425.38,340.25Z"/><path class="cls-19" d="M1425.38,227H1254.17a3.76,3.76,0,0,1-3.22,3.22V336a3.75,3.75,0,0,1,3.22,3.22h171.21a3.73,3.73,0,0,1,3.21-3.22V230.22A3.74,3.74,0,0,1,1425.38,227Z"/><path class="cls-20" d="M889.59,113.75H718.26A3.75,3.75,0,0,1,715,117V222.78a3.75,3.75,0,0,1,3.22,3.22H889.59a3.73,3.73,0,0,1,3.09-3.2V117A3.73,3.73,0,0,1,889.59,113.75Z"/><path class="cls-21" d="M889.59,340.25H718.26a3.75,3.75,0,0,1-3.22,3.22V453H892.68V343.45A3.73,3.73,0,0,1,889.59,340.25Z"/><path class="cls-22" d="M1246.74,113.75H1075.53a3.74,3.74,0,0,1-3.21,3.22V222.78a3.74,3.74,0,0,1,3.21,3.22h171.21a3.74,3.74,0,0,1,3.21-3.22V117A3.74,3.74,0,0,1,1246.74,113.75Z"/><path class="cls-23" d="M1068.1,340.25H897a3.74,3.74,0,0,1-3.34,3.23V453h177.64V343.47A3.76,3.76,0,0,1,1068.1,340.25Z"/><path class="cls-24" d="M710.83,340.25H539.62a3.74,3.74,0,0,1-3.21,3.22V453H714V343.47A3.74,3.74,0,0,1,710.83,340.25Z"/><path class="cls-25" d="M1790.08,340.25a3.76,3.76,0,0,1-3.22,3.22V453H1920a45,45,0,0,0,45-45V340.25Z"/><path class="cls-26" d="M1604,113.75h-171.2a3.76,3.76,0,0,1-3.22,3.22V222.78a3.76,3.76,0,0,1,3.22,3.22H1604a3.76,3.76,0,0,1,3.22-3.22V117A3.76,3.76,0,0,1,1604,113.75Z"/><path class="cls-27" d="M1782.65,113.75H1611.44a3.74,3.74,0,0,1-3.21,3.22V222.78a3.74,3.74,0,0,1,3.21,3.22h171.21a3.74,3.74,0,0,1,3.21-3.22V117A3.74,3.74,0,0,1,1782.65,113.75Z"/><path class="cls-28" d="M1782.65,227H1611.44a3.74,3.74,0,0,1-3.21,3.22V336a3.74,3.74,0,0,1,3.21,3.22h171.21a3.74,3.74,0,0,1,3.21-3.22V230.22A3.74,3.74,0,0,1,1782.65,227Z"/><path class="cls-29" d="M353.56,340.25H182.35a3.74,3.74,0,0,1-3.21,3.22V453H356.77V343.47A3.74,3.74,0,0,1,353.56,340.25Z"/><path class="cls-30" d="M1604,227h-171.2a3.76,3.76,0,0,1-3.22,3.22V336a3.76,3.76,0,0,1,3.22,3.22H1604a3.76,3.76,0,0,1,3.22-3.22V230.22A3.76,3.76,0,0,1,1604,227Z"/><path class="cls-31" d="M178.14,336V230.22a3.76,3.76,0,0,1-3.22-3.22H0V339.25H174.92A3.76,3.76,0,0,1,178.14,336Z"/><path class="cls-32" d="M1246.74,340.25H1075.53a3.74,3.74,0,0,1-3.21,3.22V453H1250V343.47A3.74,3.74,0,0,1,1246.74,340.25Z"/><path class="cls-33" d="M178.14,222.78V117a3.76,3.76,0,0,1-3.22-3.22H0V226H174.92A3.76,3.76,0,0,1,178.14,222.78Z"/><path class="cls-34" d="M174.92,340.25H0V408a45,45,0,0,0,45,45H178.14V343.47A3.76,3.76,0,0,1,174.92,340.25Z"/><path class="cls-35" d="M1965,112.75v0Z"/><path class="cls-36" d="M1790.08,340.25H1965v-1H1790.08a3.76,3.76,0,0,0-3.22-3.22V230.22a3.76,3.76,0,0,0,3.22-3.22H1965v-1H1790.08a3.76,3.76,0,0,0-3.22-3.22V117a3.76,3.76,0,0,0,3.22-3.22H1965v-1H1790.08a3.76,3.76,0,0,0-3.22-3.22V0h-1V109.53a3.74,3.74,0,0,0-3.21,3.22H1611.44a3.74,3.74,0,0,0-3.21-3.22V0h-1V109.53a3.76,3.76,0,0,0-3.22,3.22h-171.2a3.76,3.76,0,0,0-3.22-3.22V0h-1V109.53a3.73,3.73,0,0,0-3.21,3.22H1254.17a3.75,3.75,0,0,0-3.22-3.22V0h-1V109.53a3.74,3.74,0,0,0-3.21,3.22H1075.53a3.74,3.74,0,0,0-3.21-3.22V0h-1V109.53a3.76,3.76,0,0,0-3.22,3.22H897a3.74,3.74,0,0,0-3.34-3.23V0h-1V109.55a3.73,3.73,0,0,0-3.09,3.2H718.26a3.75,3.75,0,0,0-3.22-3.22V0h-1V109.53a3.74,3.74,0,0,0-3.21,3.22H539.62a3.74,3.74,0,0,0-3.21-3.22V0h-1V109.53a3.76,3.76,0,0,0-3.22,3.22H361a3.76,3.76,0,0,0-3.22-3.22V0h-1V109.53a3.74,3.74,0,0,0-3.21,3.22H182.35a3.74,3.74,0,0,0-3.21-3.22V0h-1V109.53a3.76,3.76,0,0,0-3.22,3.22H0v1H174.92a3.76,3.76,0,0,0,3.22,3.22V222.78a3.76,3.76,0,0,0-3.22,3.22H0v1H174.92a3.76,3.76,0,0,0,3.22,3.22V336a3.76,3.76,0,0,0-3.22,3.22H0v1H174.92a3.76,3.76,0,0,0,3.22,3.22V453h1V343.47a3.74,3.74,0,0,0,3.21-3.22H353.56a3.74,3.74,0,0,0,3.21,3.22V453h1V343.47a3.76,3.76,0,0,0,3.22-3.22h171.2a3.76,3.76,0,0,0,3.22,3.22V453h1V343.47a3.74,3.74,0,0,0,3.21-3.22H710.83a3.74,3.74,0,0,0,3.21,3.22V453h1V343.47a3.75,3.75,0,0,0,3.22-3.22H889.59a3.73,3.73,0,0,0,3.09,3.2V453h1V343.48a3.74,3.74,0,0,0,3.34-3.23H1068.1a3.76,3.76,0,0,0,3.22,3.22V453h1V343.47a3.74,3.74,0,0,0,3.21-3.22h171.21a3.74,3.74,0,0,0,3.21,3.22V453h1V343.47a3.76,3.76,0,0,0,3.22-3.22h171.21a3.74,3.74,0,0,0,3.21,3.22V453h1V343.47a3.76,3.76,0,0,0,3.22-3.22H1604a3.76,3.76,0,0,0,3.22,3.22V453h1V343.47a3.74,3.74,0,0,0,3.21-3.22h171.21a3.74,3.74,0,0,0,3.21,3.22V453h1V343.47A3.76,3.76,0,0,0,1790.08,340.25ZM356.77,336a3.74,3.74,0,0,0-3.21,3.22H182.35a3.74,3.74,0,0,0-3.21-3.22V230.22a3.74,3.74,0,0,0,3.21-3.22H353.56a3.74,3.74,0,0,0,3.21,3.22Zm0-113.25a3.74,3.74,0,0,0-3.21,3.22H182.35a3.74,3.74,0,0,0-3.21-3.22V117a3.74,3.74,0,0,0,3.21-3.22H353.56a3.74,3.74,0,0,0,3.21,3.22ZM535.41,336a3.76,3.76,0,0,0-3.22,3.22H361a3.76,3.76,0,0,0-3.22-3.22V230.22A3.76,3.76,0,0,0,361,227h171.2a3.76,3.76,0,0,0,3.22,3.22Zm0-113.25a3.76,3.76,0,0,0-3.22,3.22H361a3.76,3.76,0,0,0-3.22-3.22V117a3.76,3.76,0,0,0,3.22-3.22h171.2a3.76,3.76,0,0,0,3.22,3.22ZM714,336a3.74,3.74,0,0,0-3.21,3.22H539.62a3.74,3.74,0,0,0-3.21-3.22V230.22a3.74,3.74,0,0,0,3.21-3.22H710.83a3.74,3.74,0,0,0,3.21,3.22Zm0-113.25a3.74,3.74,0,0,0-3.21,3.22H539.62a3.74,3.74,0,0,0-3.21-3.22V117a3.74,3.74,0,0,0,3.21-3.22H710.83A3.74,3.74,0,0,0,714,117ZM892.68,336.05a3.73,3.73,0,0,0-3.09,3.2H718.26A3.75,3.75,0,0,0,715,336V230.22a3.75,3.75,0,0,0,3.22-3.22H889.59a3.73,3.73,0,0,0,3.09,3.2Zm0-113.25a3.73,3.73,0,0,0-3.09,3.2H718.26a3.75,3.75,0,0,0-3.22-3.22V117a3.75,3.75,0,0,0,3.22-3.22H889.59a3.73,3.73,0,0,0,3.09,3.2ZM1071.32,336a3.76,3.76,0,0,0-3.22,3.22H897a3.74,3.74,0,0,0-3.34-3.23V230.23A3.74,3.74,0,0,0,897,227H1068.1a3.76,3.76,0,0,0,3.22,3.22Zm0-113.25a3.76,3.76,0,0,0-3.22,3.22H897a3.74,3.74,0,0,0-3.34-3.23V117a3.74,3.74,0,0,0,3.34-3.23H1068.1a3.76,3.76,0,0,0,3.22,3.22ZM1250,336a3.74,3.74,0,0,0-3.21,3.22H1075.53a3.74,3.74,0,0,0-3.21-3.22V230.22a3.74,3.74,0,0,0,3.21-3.22h171.21a3.74,3.74,0,0,0,3.21,3.22Zm0-113.25a3.74,3.74,0,0,0-3.21,3.22H1075.53a3.74,3.74,0,0,0-3.21-3.22V117a3.74,3.74,0,0,0,3.21-3.22h171.21A3.74,3.74,0,0,0,1250,117ZM1428.59,336a3.73,3.73,0,0,0-3.21,3.22H1254.17A3.75,3.75,0,0,0,1251,336V230.22a3.76,3.76,0,0,0,3.22-3.22h171.21a3.74,3.74,0,0,0,3.21,3.22Zm0-113.25a3.73,3.73,0,0,0-3.21,3.22H1254.17a3.75,3.75,0,0,0-3.22-3.22V117a3.76,3.76,0,0,0,3.22-3.22h171.21a3.74,3.74,0,0,0,3.21,3.22ZM1607.23,336a3.76,3.76,0,0,0-3.22,3.22h-171.2a3.76,3.76,0,0,0-3.22-3.22V230.22a3.76,3.76,0,0,0,3.22-3.22H1604a3.76,3.76,0,0,0,3.22,3.22Zm0-113.25A3.76,3.76,0,0,0,1604,226h-171.2a3.76,3.76,0,0,0-3.22-3.22V117a3.76,3.76,0,0,0,3.22-3.22H1604a3.76,3.76,0,0,0,3.22,3.22ZM1785.86,336a3.74,3.74,0,0,0-3.21,3.22H1611.44a3.74,3.74,0,0,0-3.21-3.22V230.22a3.74,3.74,0,0,0,3.21-3.22h171.21a3.74,3.74,0,0,0,3.21,3.22Zm0-113.25a3.74,3.74,0,0,0-3.21,3.22H1611.44a3.74,3.74,0,0,0-3.21-3.22V117a3.74,3.74,0,0,0,3.21-3.22h171.21a3.74,3.74,0,0,0,3.21,3.22Z"/><path class="cls-37" d="M1790.08,340.25H1965v-1H1790.08a3.76,3.76,0,0,0-3.22-3.22V230.22a3.76,3.76,0,0,0,3.22-3.22H1965v-1H1790.08a3.76,3.76,0,0,0-3.22-3.22V117a3.76,3.76,0,0,0,3.22-3.22H1965v-1H1790.08a3.76,3.76,0,0,0-3.22-3.22V0h-1V109.53a3.74,3.74,0,0,0-3.21,3.22H1611.44a3.74,3.74,0,0,0-3.21-3.22V0h-1V109.53a3.76,3.76,0,0,0-3.22,3.22h-171.2a3.76,3.76,0,0,0-3.22-3.22V0h-1V109.53a3.73,3.73,0,0,0-3.21,3.22H1254.17a3.75,3.75,0,0,0-3.22-3.22V0h-1V109.53a3.74,3.74,0,0,0-3.21,3.22H1075.53a3.74,3.74,0,0,0-3.21-3.22V0h-1V109.53a3.76,3.76,0,0,0-3.22,3.22H897a3.74,3.74,0,0,0-3.34-3.23V0h-1V109.55a3.73,3.73,0,0,0-3.09,3.2H718.26a3.75,3.75,0,0,0-3.22-3.22V0h-1V109.53a3.74,3.74,0,0,0-3.21,3.22H539.62a3.74,3.74,0,0,0-3.21-3.22V0h-1V109.53a3.76,3.76,0,0,0-3.22,3.22H361a3.76,3.76,0,0,0-3.22-3.22V0h-1V109.53a3.74,3.74,0,0,0-3.21,3.22H182.35a3.74,3.74,0,0,0-3.21-3.22V0h-1V109.53a3.76,3.76,0,0,0-3.22,3.22H0v1H174.92a3.76,3.76,0,0,0,3.22,3.22V222.78a3.76,3.76,0,0,0-3.22,3.22H0v1H174.92a3.76,3.76,0,0,0,3.22,3.22V336a3.76,3.76,0,0,0-3.22,3.22H0v1H174.92a3.76,3.76,0,0,0,3.22,3.22V453h1V343.47a3.74,3.74,0,0,0,3.21-3.22H353.56a3.74,3.74,0,0,0,3.21,3.22V453h1V343.47a3.76,3.76,0,0,0,3.22-3.22h171.2a3.76,3.76,0,0,0,3.22,3.22V453h1V343.47a3.74,3.74,0,0,0,3.21-3.22H710.83a3.74,3.74,0,0,0,3.21,3.22V453h1V343.47a3.75,3.75,0,0,0,3.22-3.22H889.59a3.73,3.73,0,0,0,3.09,3.2V453h1V343.48a3.74,3.74,0,0,0,3.34-3.23H1068.1a3.76,3.76,0,0,0,3.22,3.22V453h1V343.47a3.74,3.74,0,0,0,3.21-3.22h171.21a3.74,3.74,0,0,0,3.21,3.22V453h1V343.47a3.76,3.76,0,0,0,3.22-3.22h171.21a3.74,3.74,0,0,0,3.21,3.22V453h1V343.47a3.76,3.76,0,0,0,3.22-3.22H1604a3.76,3.76,0,0,0,3.22,3.22V453h1V343.47a3.74,3.74,0,0,0,3.21-3.22h171.21a3.74,3.74,0,0,0,3.21,3.22V453h1V343.47A3.76,3.76,0,0,0,1790.08,340.25ZM356.77,336a3.74,3.74,0,0,0-3.21,3.22H182.35a3.74,3.74,0,0,0-3.21-3.22V230.22a3.74,3.74,0,0,0,3.21-3.22H353.56a3.74,3.74,0,0,0,3.21,3.22Zm0-113.25a3.74,3.74,0,0,0-3.21,3.22H182.35a3.74,3.74,0,0,0-3.21-3.22V117a3.74,3.74,0,0,0,3.21-3.22H353.56a3.74,3.74,0,0,0,3.21,3.22ZM535.41,336a3.76,3.76,0,0,0-3.22,3.22H361a3.76,3.76,0,0,0-3.22-3.22V230.22A3.76,3.76,0,0,0,361,227h171.2a3.76,3.76,0,0,0,3.22,3.22Zm0-113.25a3.76,3.76,0,0,0-3.22,3.22H361a3.76,3.76,0,0,0-3.22-3.22V117a3.76,3.76,0,0,0,3.22-3.22h171.2a3.76,3.76,0,0,0,3.22,3.22ZM714,336a3.74,3.74,0,0,0-3.21,3.22H539.62a3.74,3.74,0,0,0-3.21-3.22V230.22a3.74,3.74,0,0,0,3.21-3.22H710.83a3.74,3.74,0,0,0,3.21,3.22Zm0-113.25a3.74,3.74,0,0,0-3.21,3.22H539.62a3.74,3.74,0,0,0-3.21-3.22V117a3.74,3.74,0,0,0,3.21-3.22H710.83A3.74,3.74,0,0,0,714,117ZM892.68,336.05a3.73,3.73,0,0,0-3.09,3.2H718.26A3.75,3.75,0,0,0,715,336V230.22a3.75,3.75,0,0,0,3.22-3.22H889.59a3.73,3.73,0,0,0,3.09,3.2Zm0-113.25a3.73,3.73,0,0,0-3.09,3.2H718.26a3.75,3.75,0,0,0-3.22-3.22V117a3.75,3.75,0,0,0,3.22-3.22H889.59a3.73,3.73,0,0,0,3.09,3.2ZM1071.32,336a3.76,3.76,0,0,0-3.22,3.22H897a3.74,3.74,0,0,0-3.34-3.23V230.23A3.74,3.74,0,0,0,897,227H1068.1a3.76,3.76,0,0,0,3.22,3.22Zm0-113.25a3.76,3.76,0,0,0-3.22,3.22H897a3.74,3.74,0,0,0-3.34-3.23V117a3.74,3.74,0,0,0,3.34-3.23H1068.1a3.76,3.76,0,0,0,3.22,3.22ZM1250,336a3.74,3.74,0,0,0-3.21,3.22H1075.53a3.74,3.74,0,0,0-3.21-3.22V230.22a3.74,3.74,0,0,0,3.21-3.22h171.21a3.74,3.74,0,0,0,3.21,3.22Zm0-113.25a3.74,3.74,0,0,0-3.21,3.22H1075.53a3.74,3.74,0,0,0-3.21-3.22V117a3.74,3.74,0,0,0,3.21-3.22h171.21A3.74,3.74,0,0,0,1250,117ZM1428.59,336a3.73,3.73,0,0,0-3.21,3.22H1254.17A3.75,3.75,0,0,0,1251,336V230.22a3.76,3.76,0,0,0,3.22-3.22h171.21a3.74,3.74,0,0,0,3.21,3.22Zm0-113.25a3.73,3.73,0,0,0-3.21,3.22H1254.17a3.75,3.75,0,0,0-3.22-3.22V117a3.76,3.76,0,0,0,3.22-3.22h171.21a3.74,3.74,0,0,0,3.21,3.22ZM1607.23,336a3.76,3.76,0,0,0-3.22,3.22h-171.2a3.76,3.76,0,0,0-3.22-3.22V230.22a3.76,3.76,0,0,0,3.22-3.22H1604a3.76,3.76,0,0,0,3.22,3.22Zm0-113.25A3.76,3.76,0,0,0,1604,226h-171.2a3.76,3.76,0,0,0-3.22-3.22V117a3.76,3.76,0,0,0,3.22-3.22H1604a3.76,3.76,0,0,0,3.22,3.22ZM1785.86,336a3.74,3.74,0,0,0-3.21,3.22H1611.44a3.74,3.74,0,0,0-3.21-3.22V230.22a3.74,3.74,0,0,0,3.21-3.22h171.21a3.74,3.74,0,0,0,3.21,3.22Zm0-113.25a3.74,3.74,0,0,0-3.21,3.22H1611.44a3.74,3.74,0,0,0-3.21-3.22V117a3.74,3.74,0,0,0,3.21-3.22h171.21a3.74,3.74,0,0,0,3.21,3.22Z"/><path class="cls-38" d="M751.48,261.79c-9.69,7.84-19.66,15.89-30.67,22.19H808.3a21.53,21.53,0,0,0,21.53-21.53v-35h-.16C795.27,226.37,774,243.58,751.48,261.79Z"/><path class="cls-39" d="M722.25,221.71c-22.08,11.68-44.92,23.77-72.81,24.94h-.22v15.8A21.53,21.53,0,0,0,670.75,284h23.19a74.87,74.87,0,0,0,13.59-4.66c13.55-6.08,25.19-15.5,37.53-25.47,22.94-18.56,46.67-37.75,84.77-36.67V200.42l-1.19-.29C783.38,189.37,753.69,205.08,722.25,221.71Z"/><path class="cls-40" d="M802.71,160.29c-17.14-9.9-31.94-18.45-50.41-12.23-14.66,4.94-24.6,15.08-36.11,26.83-15.24,15.55-32.5,33.17-65.37,44l-1.6.5v17.06c25.49-1.13,46.27-12.12,68.25-23.75,31.47-16.65,64-33.84,112.36-22.75V174c-.64-.24-1.27-.48-1.91-.74C818.76,169.57,810.6,164.86,802.71,160.29Z"/><path class="cls-41" d="M808.3,103.38H712.72c-.14.49-.27,1-.41,1.46C701.18,142,677.44,175.79,651.82,191c-.86.51-1.73,1-2.6,1.47v16.2c29.48-10.09,45.51-26.43,59.67-40.88,11.91-12.16,23.17-23.64,40.14-29.36,22.85-7.7,40.31,2.39,58.79,13.07a203.39,203.39,0,0,0,22,11.52V124.91A21.53,21.53,0,0,0,808.3,103.38Z"/><path class="cls-42" d="M702.06,103.38H670.75a21.53,21.53,0,0,0-21.53,21.53v55.63C671.42,166.11,691.86,136.34,702.06,103.38Z"/><path class="cls-38" d="M886.12,196.37h23.45q10.77,0,17.12-5.73t6.34-16q0-10.95-6.26-16.51t-17-5.56H886.12l4-4.52V253.88H870V133.48h42.22q12.68,0,22,5.3a37.79,37.79,0,0,1,14.5,14.59,45.64,45.64,0,0,1,0,42.39,37,37,0,0,1-14.59,14.51q-9.37,5.22-21.89,5.21H886.12Z"/><path class="cls-38" d="M1045.61,183.86V165.45h51.6v18.41Zm39.27,70q-12.17,0-19.2-6.69t-7-21.11V165.45l3.82-17.55h16.34v76.45c0,3.47.86,6,2.6,7.64a9.55,9.55,0,0,0,6.78,2.43,33.67,33.67,0,0,0,5-.34,32.6,32.6,0,0,0,4-.87V252a39.77,39.77,0,0,1-5.47,1.39A38.73,38.73,0,0,1,1084.88,253.88Z"/><path class="cls-38" d="M997.83,253.88q-12.51,0-21.89-5.47A38.38,38.38,0,0,1,961.26,233q-5.29-9.9-5.3-23.11,0-13.36,5.3-23.36A38.76,38.76,0,0,1,975.94,171a42.11,42.11,0,0,1,21.89-5.56q12.69,0,22.16,5.64a38.71,38.71,0,0,1,14.68,15.64,49.1,49.1,0,0,1,5.21,23c0,1,0,2.09-.09,3.13s-.14,2-.26,2.78H973.68V199.5h50.91l-4.17,9.21q0-12-5.56-19.63T998,181.43q-10.26,0-16.25,6.34t-6,16.77v9.21q0,10.77,6,17.11t16.59,6.34q9.55,0,14.86-4a38.53,38.53,0,0,0,9.12-9.91l14.42,8.69a40.11,40.11,0,0,1-15.29,16.33Q1011.91,253.89,997.83,253.88Z"/><path class="cls-38" d="M1127.8,165.45l5.38,24.67v63.76H1113V165.45Zm1.73,34.57-4.17-1.91V183l1.56-2.09a32.15,32.15,0,0,1,5.56-6.6,37.55,37.55,0,0,1,9-6.26,23,23,0,0,1,10.51-2.6,34,34,0,0,1,5,.34,8.3,8.3,0,0,1,3.56,1.22v18.24h-5.56q-11.46,0-17.2,3.57T1129.53,200Z"/><path class="cls-38" d="M1202.85,253.88q-12.51,0-21.9-5.47A38.44,38.44,0,0,1,1166.27,233q-5.3-9.9-5.3-23.11,0-13.36,5.3-23.36A38.83,38.83,0,0,1,1181,171q9.39-5.56,21.9-5.56,12.68,0,22.15,5.64a38.64,38.64,0,0,1,14.68,15.64,49,49,0,0,1,5.21,23c0,1,0,2.09-.08,3.13s-.15,2-.27,2.78H1178.7V199.5h50.9l-4.17,9.21q0-12-5.56-19.63T1203,181.43q-10.24,0-16.24,6.34t-6,16.77v9.21q0,10.77,6,17.11t16.59,6.34q9.56,0,14.85-4a38.35,38.35,0,0,0,9.12-9.91l14.42,8.69a40.16,40.16,0,0,1-15.28,16.33Q1216.91,253.89,1202.85,253.88Z"/><path class="cls-38" d="M1284.16,253.88a41.5,41.5,0,0,1-18.07-4.14q-8.68-4.16-14.94-14l13.72-10.37a40.24,40.24,0,0,0,9.91,9,22.13,22.13,0,0,0,11.46,2.77,11.3,11.3,0,0,0,7.65-2.42,7.7,7.7,0,0,0,2.78-6.05,7.14,7.14,0,0,0-1.39-4.31,12.57,12.57,0,0,0-5.13-3.55,70.18,70.18,0,0,0-10.68-3.36q-12.87-3.28-19.55-9t-6.69-16.93a24.52,24.52,0,0,1,3.65-13,25.67,25.67,0,0,1,10.6-9.5,35.54,35.54,0,0,1,16.33-3.54q11.3,0,19.29,4.49a40.3,40.3,0,0,1,12.68,10.71l-14.07,11a32.28,32.28,0,0,0-7.91-6.13,23.48,23.48,0,0,0-11.9-2.85,13.76,13.76,0,0,0-7.47,2.07,6.56,6.56,0,0,0-3.3,5.87,7.25,7.25,0,0,0,3.3,6.05q3.3,2.41,12.51,4.49,15.46,3.63,22.06,9.67t6.61,15.89a24.3,24.3,0,0,1-4.35,14.43,28.27,28.27,0,0,1-11.47,9.41A36.87,36.87,0,0,1,1284.16,253.88Z"/><g class="cls-43"><path class="cls-44" d="M724.59,334.14c0,6.36-3.87,9.73-8.58,9.73-4.88,0-8.3-3.78-8.3-9.37,0-5.86,3.64-9.7,8.57-9.7S724.59,328.66,724.59,334.14Zm-14.33.31c0,3.94,2.13,7.47,5.89,7.47s5.91-3.48,5.91-7.67c0-3.67-1.91-7.5-5.89-7.5S710.26,330.39,710.26,334.45Z"/><path class="cls-44" d="M727.59,334.64c0-1.7-.05-3.07-.11-4.33h2.17l.11,2.27h0a5.23,5.23,0,0,1,4.72-2.57c3.2,0,5.61,2.71,5.61,6.74,0,4.76-2.9,7.12-6,7.12a4.67,4.67,0,0,1-4.08-2.08h0V349h-2.39Zm2.39,3.53a5,5,0,0,0,.11,1A3.72,3.72,0,0,0,733.7,342c2.55,0,4-2.08,4-5.12,0-2.66-1.4-4.94-3.94-4.94a3.85,3.85,0,0,0-3.65,3,4,4,0,0,0-.16,1Z"/><path class="cls-44" d="M744.52,337.38c.06,3.26,2.14,4.6,4.55,4.6a8.57,8.57,0,0,0,3.67-.69l.41,1.73a10.8,10.8,0,0,1-4.41.82c-4.08,0-6.52-2.68-6.52-6.68s2.36-7.15,6.22-7.15c4.33,0,5.48,3.81,5.48,6.24a11.08,11.08,0,0,1-.08,1.13Zm7.07-1.73c0-1.53-.63-3.92-3.34-3.92-2.44,0-3.51,2.25-3.7,3.92Z"/><path class="cls-44" d="M756.9,333.9c0-1.37,0-2.5-.11-3.59h2.14l.14,2.19h0A4.87,4.87,0,0,1,763.5,330c1.84,0,4.69,1.09,4.69,5.64v7.92h-2.41v-7.65c0-2.13-.8-3.91-3.07-3.91a3.55,3.55,0,0,0-3.4,3.59v8H756.9Z"/><path class="cls-44" d="M777.69,335.27v1.78h-6.77v-1.78Z"/><path class="cls-44" d="M780.26,340.66a8.43,8.43,0,0,0,4.28,1.21c2.44,0,3.86-1.29,3.86-3.15s-1-2.71-3.48-3.67c-3-1.07-4.87-2.63-4.87-5.23,0-2.88,2.38-5,6-5a8.32,8.32,0,0,1,4.08.91l-.66,1.94a7.3,7.3,0,0,0-3.5-.88c-2.52,0-3.48,1.51-3.48,2.77,0,1.73,1.12,2.58,3.67,3.56,3.12,1.21,4.71,2.71,4.71,5.43s-2.11,5.31-6.47,5.31a9.52,9.52,0,0,1-4.71-1.18Z"/><path class="cls-44" d="M806.18,336.83c0,4.9-3.4,7-6.6,7-3.59,0-6.36-2.63-6.36-6.82,0-4.44,2.9-7,6.57-7S806.18,332.77,806.18,336.83Zm-10.52.14c0,2.9,1.67,5.09,4,5.09s4-2.16,4-5.15c0-2.25-1.12-5.09-4-5.09S795.66,334.45,795.66,337Z"/><path class="cls-44" d="M820.31,340c0,1.37,0,2.58.11,3.62h-2.14l-.13-2.17h-.06a5,5,0,0,1-4.38,2.47c-2.08,0-4.58-1.15-4.58-5.81v-7.75h2.41v7.34c0,2.52.77,4.22,3,4.22a3.39,3.39,0,0,0,3.4-3.43v-8.13h2.41Z"/><path class="cls-44" d="M824.31,334.45c0-1.57,0-2.91-.11-4.14h2.11l.08,2.6h.11a4,4,0,0,1,3.67-2.9,2.42,2.42,0,0,1,.69.08v2.27a4,4,0,0,0-.83-.08,3.39,3.39,0,0,0-3.23,3.1,7.32,7.32,0,0,0-.11,1.12v7.07h-2.38Z"/><path class="cls-44" d="M842.44,343.07a8.81,8.81,0,0,1-3.8.77c-4,0-6.61-2.71-6.61-6.76a6.75,6.75,0,0,1,7.13-7.05,8,8,0,0,1,3.34.69l-.55,1.86a5.56,5.56,0,0,0-2.79-.63c-3,0-4.69,2.25-4.69,5,0,3.06,2,4.95,4.6,4.95a6.87,6.87,0,0,0,3-.65Z"/><path class="cls-44" d="M846.44,337.38c0,3.26,2.14,4.6,4.55,4.6a8.64,8.64,0,0,0,3.67-.69l.41,1.73a10.8,10.8,0,0,1-4.41.82c-4.08,0-6.52-2.68-6.52-6.68s2.35-7.15,6.22-7.15c4.33,0,5.48,3.81,5.48,6.24a8.39,8.39,0,0,1-.09,1.13Zm7.07-1.73c0-1.53-.63-3.92-3.34-3.92-2.44,0-3.51,2.25-3.7,3.92Z"/><path class="cls-44" d="M864.71,325.32a27.92,27.92,0,0,1,4.57-.35,7.56,7.56,0,0,1,5.18,1.53,5,5,0,0,1,1.62,3.86,5.42,5.42,0,0,1-1.43,3.95,7.65,7.65,0,0,1-5.64,2,8.07,8.07,0,0,1-1.92-.17v7.4h-2.38Zm2.38,8.91a8.39,8.39,0,0,0,2,.19c2.87,0,4.62-1.4,4.62-3.95s-1.72-3.61-4.35-3.61a10,10,0,0,0-2.25.19Z"/><path class="cls-44" d="M880.18,330.31l2.91,7.83c.3.88.63,1.92.85,2.72h0c.25-.8.52-1.81.85-2.77l2.63-7.78H890l-3.62,9.45c-1.72,4.55-2.9,6.88-4.54,8.3a6.57,6.57,0,0,1-3,1.56l-.61-2a6.49,6.49,0,0,0,2.11-1.18,7.27,7.27,0,0,0,2-2.69,1.69,1.69,0,0,0,.19-.57,2,2,0,0,0-.16-.63l-4.91-12.22Z"/><path class="cls-44" d="M895.11,326.5v3.81h3.45v1.83h-3.45v7.15c0,1.65.47,2.58,1.81,2.58a5.52,5.52,0,0,0,1.4-.16l.11,1.8a6,6,0,0,1-2.14.33,3.32,3.32,0,0,1-2.6-1,4.88,4.88,0,0,1-.93-3.45v-7.24H890.7v-1.83h2.06v-3.18Z"/><path class="cls-44" d="M901.27,324.12h2.42v8.27h0a4.49,4.49,0,0,1,1.73-1.7,5,5,0,0,1,2.46-.68c1.78,0,4.63,1.09,4.63,5.67v7.89h-2.41V336c0-2.13-.79-3.94-3.07-3.94a3.46,3.46,0,0,0-3.23,2.41,2.86,2.86,0,0,0-.16,1.15v8h-2.42Z"/><path class="cls-44" d="M928.48,336.83c0,4.9-3.4,7-6.61,7-3.58,0-6.35-2.63-6.35-6.82,0-4.44,2.9-7,6.57-7S928.48,332.77,928.48,336.83ZM918,337c0,2.9,1.67,5.09,4,5.09s4-2.16,4-5.15c0-2.25-1.12-5.09-4-5.09S918,334.45,918,337Z"/><path class="cls-44" d="M931.51,333.9c0-1.37,0-2.5-.11-3.59h2.14l.14,2.19h.05a4.88,4.88,0,0,1,4.39-2.49c1.83,0,4.68,1.09,4.68,5.64v7.92h-2.41v-7.65c0-2.13-.79-3.91-3.07-3.91a3.55,3.55,0,0,0-3.4,3.59v8h-2.41Z"/><path class="cls-44" d="M952.6,325.35a24.67,24.67,0,0,1,4.58-.38c2.55,0,4.19.46,5.34,1.5A4.61,4.61,0,0,1,964,330a4.84,4.84,0,0,1-3.48,4.71v.08c1.43.5,2.28,1.81,2.72,3.73a29.73,29.73,0,0,0,1.42,5.07h-2.46a23,23,0,0,1-1.24-4.41c-.55-2.55-1.53-3.51-3.7-3.59H955v8H952.6Zm2.39,8.41h2.44c2.54,0,4.16-1.4,4.16-3.51,0-2.38-1.73-3.42-4.25-3.45A9.69,9.69,0,0,0,955,327Z"/><path class="cls-44" d="M968.71,337.38c0,3.26,2.14,4.6,4.55,4.6a8.64,8.64,0,0,0,3.67-.69l.41,1.73a10.8,10.8,0,0,1-4.41.82c-4.08,0-6.52-2.68-6.52-6.68s2.35-7.15,6.22-7.15c4.33,0,5.48,3.81,5.48,6.24a8.39,8.39,0,0,1-.09,1.13Zm7.07-1.73c0-1.53-.63-3.92-3.34-3.92-2.44,0-3.51,2.25-3.7,3.92Z"/><path class="cls-44" d="M980.76,341.1a6.26,6.26,0,0,0,3.18,1c1.75,0,2.57-.88,2.57-2s-.68-1.78-2.46-2.44c-2.39-.85-3.51-2.16-3.51-3.75,0-2.14,1.73-3.89,4.58-3.89a6.61,6.61,0,0,1,3.26.82l-.61,1.75a5.15,5.15,0,0,0-2.71-.76c-1.42,0-2.22.82-2.22,1.8s.8,1.59,2.52,2.25c2.3.88,3.48,2,3.48,4,0,2.33-1.81,4-5,4a7.52,7.52,0,0,1-3.72-.9Z"/><path class="cls-44" d="M993.28,337.38c.05,3.26,2.13,4.6,4.55,4.6a8.64,8.64,0,0,0,3.67-.69l.41,1.73a10.8,10.8,0,0,1-4.41.82c-4.09,0-6.52-2.68-6.52-6.68s2.35-7.15,6.22-7.15c4.32,0,5.47,3.81,5.47,6.24a8.76,8.76,0,0,1-.08,1.13Zm7.07-1.73c0-1.53-.63-3.92-3.35-3.92-2.43,0-3.5,2.25-3.69,3.92Z"/><path class="cls-44" d="M1005.66,334.45c0-1.57,0-2.91-.11-4.14h2.11l.08,2.6h.11a4,4,0,0,1,3.67-2.9,2.42,2.42,0,0,1,.69.08v2.27a4,4,0,0,0-.83-.08,3.39,3.39,0,0,0-3.23,3.1,7.32,7.32,0,0,0-.11,1.12v7.07h-2.38Z"/><path class="cls-44" d="M1016.23,330.31l2.6,7.45a32.78,32.78,0,0,1,1.07,3.4h.08c.31-1.1.69-2.19,1.13-3.4l2.57-7.45h2.52l-5.2,13.26h-2.3l-5-13.26Z"/><path class="cls-44" d="M1040.2,336.83c0,4.9-3.4,7-6.6,7-3.59,0-6.36-2.63-6.36-6.82,0-4.44,2.91-7,6.58-7S1040.2,332.77,1040.2,336.83Zm-10.52.14c0,2.9,1.67,5.09,4,5.09s4-2.16,4-5.15c0-2.25-1.12-5.09-4-5.09S1029.68,334.45,1029.68,337Z"/><path class="cls-44" d="M1045.92,326.58a1.49,1.49,0,0,1-3,0,1.46,1.46,0,0,1,1.5-1.5A1.42,1.42,0,0,1,1045.92,326.58Zm-2.68,17V330.31h2.41v13.26Z"/><path class="cls-44" d="M1049.65,334.45c0-1.57,0-2.91-.11-4.14h2.11l.08,2.6h.11a4,4,0,0,1,3.67-2.9,2.35,2.35,0,0,1,.68.08v2.27a3.86,3.86,0,0,0-.82-.08,3.38,3.38,0,0,0-3.23,3.1,7.32,7.32,0,0,0-.11,1.12v7.07h-2.38Z"/><path class="cls-44" d="M1080.05,335.46c-.13-2.58-.3-5.67-.27-8h-.08c-.63,2.16-1.4,4.46-2.33,7l-3.26,9h-1.81l-3-8.8c-.87-2.6-1.61-5-2.13-7.17h-.06c0,2.3-.19,5.39-.35,8.16l-.5,7.92H1064l1.29-18.47h3l3.15,8.93c.76,2.28,1.39,4.31,1.86,6.22h.08c.47-1.86,1.13-3.89,1.95-6.22l3.29-8.93h3l1.15,18.47h-2.33Z"/><path class="cls-44" d="M1098.59,336.83c0,4.9-3.39,7-6.6,7-3.59,0-6.35-2.63-6.35-6.82,0-4.44,2.9-7,6.57-7S1098.59,332.77,1098.59,336.83Zm-10.52.14c0,2.9,1.68,5.09,4,5.09s4-2.16,4-5.15c0-2.25-1.12-5.09-4-5.09S1088.07,334.45,1088.07,337Z"/><path class="cls-44" d="M1113.09,324.12v16c0,1.18,0,2.52.1,3.43H1111l-.11-2.3h-.05a4.91,4.91,0,0,1-4.53,2.6c-3.2,0-5.67-2.71-5.67-6.74,0-4.41,2.72-7.12,5.95-7.12a4.44,4.44,0,0,1,4,2h.05v-7.91Zm-2.42,11.59a3.89,3.89,0,0,0-.11-1,3.54,3.54,0,0,0-3.48-2.79c-2.49,0-4,2.19-4,5.12,0,2.69,1.32,4.9,3.92,4.9a3.6,3.6,0,0,0,3.53-2.87,3.86,3.86,0,0,0,.11-1Z"/><path class="cls-44" d="M1118.42,337.38c.06,3.26,2.14,4.6,4.55,4.6a8.57,8.57,0,0,0,3.67-.69l.41,1.73a10.8,10.8,0,0,1-4.41.82c-4.08,0-6.52-2.68-6.52-6.68s2.36-7.15,6.22-7.15c4.33,0,5.48,3.81,5.48,6.24a8.76,8.76,0,0,1-.08,1.13Zm7.07-1.73c0-1.53-.63-3.92-3.34-3.92-2.44,0-3.51,2.25-3.7,3.92Z"/><path class="cls-44" d="M1130.8,324.12h2.41v19.45h-2.41Z"/><path class="cls-44" d="M1140,326.58a1.49,1.49,0,0,1-3,0,1.46,1.46,0,0,1,1.5-1.5A1.42,1.42,0,0,1,1140,326.58Zm-2.68,17V330.31h2.41v13.26Z"/><path class="cls-44" d="M1143.68,333.9c0-1.37,0-2.5-.11-3.59h2.13l.14,2.19h.06a4.86,4.86,0,0,1,4.38-2.49c1.83,0,4.68,1.09,4.68,5.64v7.92h-2.41v-7.65c0-2.13-.79-3.91-3.07-3.91a3.51,3.51,0,0,0-3.39,3.59v8h-2.41Z"/><path class="cls-44" d="M1170.3,330.31c0,1-.11,2-.11,3.64v7.7c0,3-.6,4.9-1.89,6.05a7,7,0,0,1-4.82,1.59,8.58,8.58,0,0,1-4.41-1.09l.6-1.84a7.48,7.48,0,0,0,3.89,1c2.47,0,4.28-1.28,4.28-4.63v-1.48h-.06a4.71,4.71,0,0,1-4.22,2.22c-3.28,0-5.64-2.79-5.64-6.46,0-4.5,2.93-7,6-7a4.41,4.41,0,0,1,4.14,2.3h0l.11-2Zm-2.49,5.23a3.35,3.35,0,0,0-.14-1.09,3.47,3.47,0,0,0-3.37-2.55c-2.3,0-3.94,1.94-3.94,5,0,2.6,1.31,4.77,3.91,4.77a3.53,3.53,0,0,0,3.35-2.47,4.38,4.38,0,0,0,.19-1.29Z"/><path class="cls-44" d="M1180.08,325.1h2.38v16.47h7.89v2h-10.27Z"/><path class="cls-44" d="M1195.61,326.58a1.5,1.5,0,0,1-3,0,1.46,1.46,0,0,1,1.51-1.5A1.43,1.43,0,0,1,1195.61,326.58Zm-2.69,17V330.31h2.41v13.26Z"/><path class="cls-44" d="M1199.22,343.57c.06-.91.11-2.25.11-3.43v-16h2.39v8.33h0a4.94,4.94,0,0,1,4.52-2.44c3.29,0,5.62,2.74,5.59,6.76,0,4.74-3,7.1-6,7.1a4.72,4.72,0,0,1-4.43-2.49h-.09l-.11,2.19Zm2.5-5.32a4.15,4.15,0,0,0,.11.88,3.71,3.71,0,0,0,3.61,2.82c2.52,0,4-2.05,4-5.09,0-2.66-1.37-4.94-4-4.94a3.86,3.86,0,0,0-3.67,3,5.3,5.3,0,0,0-.13,1Z"/><path class="cls-44" d="M1214.92,334.45c0-1.57,0-2.91-.11-4.14h2.11l.08,2.6h.11a4,4,0,0,1,3.67-2.9,2.47,2.47,0,0,1,.69.08v2.27a4,4,0,0,0-.83-.08,3.38,3.38,0,0,0-3.23,3.1,7.32,7.32,0,0,0-.11,1.12v7.07h-2.38Z"/><path class="cls-44" d="M1231.08,343.57l-.19-1.67h-.08a5,5,0,0,1-4.06,2,3.78,3.78,0,0,1-4-3.81c0-3.2,2.85-5,8-4.93v-.27a2.73,2.73,0,0,0-3-3.07,6.63,6.63,0,0,0-3.46,1l-.54-1.58A8.13,8.13,0,0,1,1228,330c4.06,0,5,2.76,5,5.42v5a19.2,19.2,0,0,0,.22,3.18Zm-.36-6.77c-2.63-.05-5.61.41-5.61,3a2.13,2.13,0,0,0,2.27,2.3,3.31,3.31,0,0,0,3.21-2.22,2.59,2.59,0,0,0,.13-.77Z"/><path class="cls-44" d="M1236.94,334.45c0-1.57,0-2.91-.11-4.14h2.11l.08,2.6h.11a4,4,0,0,1,3.67-2.9,2.42,2.42,0,0,1,.69.08v2.27a4,4,0,0,0-.82-.08,3.39,3.39,0,0,0-3.24,3.1,7.32,7.32,0,0,0-.11,1.12v7.07h-2.38Z"/><path class="cls-44" d="M1247.46,330.31l2.9,7.83c.3.88.63,1.92.85,2.72h0c.25-.8.53-1.81.85-2.77l2.63-7.78h2.55l-3.61,9.45c-1.73,4.55-2.91,6.88-4.55,8.3a6.57,6.57,0,0,1-3,1.56l-.6-2a6.7,6.7,0,0,0,2.11-1.18,7.26,7.26,0,0,0,2-2.69,1.76,1.76,0,0,0,.2-.57,2.12,2.12,0,0,0-.17-.63l-4.9-12.22Z"/></g></g></g></svg>