<svg xmlns="http://www.w3.org/2000/svg" viewBox="0 0 733.73 184.17"><defs><style>.cls-1{fill:#fff;}.cls-2{fill:none;}.cls-3{fill:#cfff40;}.cls-4{fill:#bfff00;}.cls-5{fill:#efffbf;}.cls-6{fill:#dfff80;}</style></defs><g id="Layer_2" data-name="Layer 2"><g id="Layer_1-2" data-name="Layer 1"><path class="cls-1" d="M313.73,31.66q-10.23-5.82-24.19-5.83H243.08V156.05h22.18v-40h24.28q13.77,0,24.09-5.73a40.8,40.8,0,0,0,16.07-16,46.7,46.7,0,0,0,5.73-23.23,47.15,47.15,0,0,0-5.73-23.43A41.7,41.7,0,0,0,313.73,31.66Zm-8.22,57.08q-7,6.32-18.84,6.31H265.26V46.86h21.6q11.86,0,18.74,6.12t6.89,18.17Q312.49,82.43,305.51,88.74Z"/><path class="cls-1" d="M408.19,66.85q-10.43-6.21-24.38-6.22-13.77,0-24.09,6.12a42.73,42.73,0,0,0-16.16,17.11q-5.83,11-5.83,25.72,0,14.53,5.83,25.43a42.19,42.19,0,0,0,16.16,16.93q10.32,6,24.09,6,15.49,0,26-6.12a44.25,44.25,0,0,0,16.83-18l-15.87-9.56a42.31,42.31,0,0,1-10,10.9q-5.84,4.39-16.35,4.39-11.65,0-18.26-7c-4-4.22-6.16-9.81-6.52-16.73h70.1c.13-.89.22-1.91.29-3.06s.09-2.29.09-3.44q0-14.34-5.73-25.34A42.54,42.54,0,0,0,408.19,66.85ZM384,78.22q12.44,0,18.55,8.42a30.88,30.88,0,0,1,5,11.47H360a23.85,23.85,0,0,1,6.16-12.91Q372.72,78.22,384,78.22Z"/><path class="cls-1" d="M472.91,41.13h-18l-4.21,21.6H436.39V83h14.34v44.17q0,15.88,7.75,23.24t21.13,7.36a42.15,42.15,0,0,0,7.55-.58,43.09,43.09,0,0,0,6-1.53V135a30.68,30.68,0,0,1-4.4,1,35.89,35.89,0,0,1-5.54.38,10.47,10.47,0,0,1-7.46-2.68q-2.86-2.67-2.87-8.41V83h20.27V62.73H472.91Z"/><path class="cls-1" d="M553.41,60.63a25.28,25.28,0,0,0-11.57,2.87A41.17,41.17,0,0,0,532,70.38c-.94.9-1.78,1.76-2.55,2.6l-2.23-10.25H510.58v93.32h22.18V90.86a19,19,0,0,1,5-4.51q6.32-3.91,18.93-3.92h6.12V62.35A9.23,9.23,0,0,0,558.86,61,37.81,37.81,0,0,0,553.41,60.63Z"/><path class="cls-1" d="M633.82,66.85q-10.43-6.21-24.38-6.22-13.77,0-24.1,6.12a42.71,42.71,0,0,0-16.15,17.11q-5.84,11-5.83,25.72,0,14.53,5.83,25.43a42.17,42.17,0,0,0,16.15,16.93q10.33,6,24.1,6,15.48,0,26-6.12a44.25,44.25,0,0,0,16.83-18l-15.87-9.56a42.48,42.48,0,0,1-10,10.9q-5.83,4.39-16.35,4.39-11.67,0-18.26-7c-4-4.22-6.16-9.81-6.52-16.73h70.1c.13-.89.22-1.91.29-3.06s.09-2.29.09-3.44q0-14.34-5.73-25.34A42.61,42.61,0,0,0,633.82,66.85ZM609.63,78.22q12.42,0,18.55,8.42a31,31,0,0,1,5,11.47H585.59a23.85,23.85,0,0,1,6.16-12.91Q598.35,78.22,609.63,78.22Z"/><path class="cls-1" d="M726.27,110.73Q719,104,702,100q-10.14-2.3-13.77-5a8,8,0,0,1-3.63-6.69,7.26,7.26,0,0,1,3.63-6.5,15.06,15.06,0,0,1,8.22-2.3,25.65,25.65,0,0,1,13.1,3.16,35.34,35.34,0,0,1,8.7,6.78l15.49-12.23a44.64,44.64,0,0,0-14-11.86q-8.81-5-21.23-5a39,39,0,0,0-18,3.92,28.34,28.34,0,0,0-11.66,10.52,27.2,27.2,0,0,0-4,14.43q0,12.43,7.36,18.74t21.51,10a76.13,76.13,0,0,1,11.76,3.72c2.74,1.22,4.62,2.52,5.64,3.92a8,8,0,0,1,1.53,4.78,8.54,8.54,0,0,1-3.06,6.7q-3.06,2.67-8.41,2.67a24.25,24.25,0,0,1-12.62-3.06q-5.16-3-10.9-9.94l-15.11,11.47q6.88,10.91,16.45,15.49a45.4,45.4,0,0,0,19.89,4.59,40.49,40.49,0,0,0,17.21-3.63,31.2,31.2,0,0,0,12.62-10.42,27.09,27.09,0,0,0,4.78-16Q733.54,117.42,726.27,110.73Z"/><path class="cls-2" d="M184.17,62.63v0Z"/><polygon class="cls-2" points="0 116.49 0 116.49 0 137.39 0 137.39 0 116.49"/><path class="cls-2" d="M0,21.92V80.71H0Z"/><path class="cls-2" d="M0,144.4v0Z"/><polygon class="cls-2" points="184.17 117.76 184.17 117.76 184.17 97.2 184.17 97.2 184.17 117.76"/><polygon class="cls-2" points="184.17 90.01 184.17 90.01 184.17 70.18 184.17 70.17 184.17 90.01"/><polygon class="cls-2" points="0 88.85 0 88.85 0 109.13 0 109.13 0 88.85"/><path class="cls-2" d="M184.17,162.3V124.76h0Z"/><path class="cls-3" d="M162.22,0H63l-.29,1C51.47,38.5,27.56,72.58,1.78,87.83c-.59.35-1.18.69-1.78,1v20.27C30.8,98.73,47.4,81.8,62.07,66.83c12-12.25,23.34-23.82,40.26-29.52,22.57-7.6,40,2.5,58.55,13.19,7.39,4.27,15,8.67,23.29,12.13V21.87A22,22,0,0,0,162.22,0Z"/><path class="cls-4" d="M55.68,0H22A22,22,0,0,0,0,21.92V80.71C23.43,66,45.07,34.63,55.68,0Z"/><path class="cls-5" d="M22,184.17h30A82.52,82.52,0,0,0,60.16,181c14-6.29,26-16,38.64-26.21,23.17-18.74,47.12-38.1,85.37-37V97.2l-.81-.2c-46.78-11.12-78.76,5.8-109.69,22.16C51.32,131,28.21,143.21.15,144.39H0v17.85A22,22,0,0,0,22,184.17Z"/><path class="cls-6" d="M184.17,90V70.17c-.44-.16-.87-.32-1.31-.5-9.22-3.71-17.49-8.49-25.49-13.11-17.83-10.31-33.24-19.2-52.81-12.62C89.23,49.11,79,59.59,67.07,71.73c-15.4,15.71-32.85,33.52-66,44.42-.35.12-.73.22-1.09.34v20.9c26.41-1.15,47.78-12.45,70.4-24.42C102.29,96.1,135.28,78.67,184.17,90Z"/><path class="cls-1" d="M184.07,124.76c-1,0-2,0-2.92,0-34.06,0-56.36,18-77.94,35.49-10.62,8.59-21.54,17.41-33.73,24h92.74a22,22,0,0,0,21.95-21.87V124.76Z"/></g></g></svg>