<svg xmlns="http://www.w3.org/2000/svg" viewBox="0 0 184.17 184.17"><defs><style>.cls-1{fill:none;}.cls-2{fill:#8fbf26;}.cls-3{fill:#bfff00;}.cls-4{fill:#304071;}.cls-5{fill:#60804b;}.cls-6{fill:#000096;}</style></defs><g id="Layer_2" data-name="Layer 2"><g id="Layer_1-2" data-name="Layer 1"><path class="cls-1" d="M184.17,62.63v0Z"/><polygon class="cls-1" points="0 116.49 0 116.49 0 137.39 0 137.39 0 116.49"/><path class="cls-1" d="M0,21.92V80.71H0Z"/><path class="cls-1" d="M0,144.4v0Z"/><polygon class="cls-1" points="184.17 117.76 184.17 117.76 184.17 97.2 184.17 97.2 184.17 117.76"/><polygon class="cls-1" points="184.17 90.01 184.17 90.01 184.17 70.18 184.17 70.17 184.17 90.01"/><polygon class="cls-1" points="0 88.85 0 88.85 0 109.13 0 109.13 0 88.85"/><path class="cls-1" d="M184.17,162.3V124.76h0Z"/><path class="cls-2" d="M162.22,0H63l-.29,1C51.47,38.5,27.56,72.58,1.78,87.83c-.59.35-1.18.69-1.78,1v20.27C30.8,98.73,47.4,81.8,62.07,66.83c12-12.25,23.34-23.82,40.26-29.52,22.57-7.6,40,2.5,58.55,13.19,7.39,4.27,15,8.67,23.29,12.13V21.87A22,22,0,0,0,162.22,0Z"/><path class="cls-3" d="M55.68,0H22A22,22,0,0,0,0,21.92V80.71C23.43,66,45.07,34.63,55.68,0Z"/><path class="cls-4" d="M22,184.17h30A82.52,82.52,0,0,0,60.16,181c14-6.29,26-16,38.64-26.21,23.17-18.74,47.12-38.1,85.37-37V97.2l-.81-.2c-46.78-11.12-78.76,5.8-109.69,22.16C51.32,131,28.21,143.21.15,144.39H0v17.85A22,22,0,0,0,22,184.17Z"/><path class="cls-5" d="M184.17,90V70.17c-.44-.16-.87-.32-1.31-.5-9.22-3.71-17.49-8.49-25.49-13.11-17.83-10.31-33.24-19.2-52.81-12.62C89.23,49.11,79,59.59,67.07,71.73c-15.4,15.71-32.85,33.52-66,44.42-.35.12-.73.22-1.09.34v20.9c26.41-1.15,47.78-12.45,70.4-24.42C102.29,96.1,135.28,78.67,184.17,90Z"/><path class="cls-6" d="M184.07,124.76c-1,0-2,0-2.92,0-34.06,0-56.36,18-77.94,35.49-10.62,8.59-21.54,17.41-33.73,24h92.74a22,22,0,0,0,21.95-21.87V124.76Z"/></g></g></svg>