<svg xmlns="http://www.w3.org/2000/svg" viewBox="0 0 733.59 198.77"><defs><style>.cls-1{fill:#fff;}.cls-2{fill:#efffbf;}.cls-3{fill:#dfff80;}.cls-4{fill:#cfff40;}.cls-5{fill:#bfff00;}</style></defs><g id="Layer_2" data-name="Layer 2"><g id="Layer_1-2" data-name="Layer 1"><path class="cls-1" d="M112.54,174.34c-10.67,8.63-21.63,17.49-33.75,24.43h96.28a23.7,23.7,0,0,0,23.7-23.7V136.5h-.17C160.74,135.36,137.32,154.3,112.54,174.34Z"/><path class="cls-2" d="M80.37,130.23C56.07,143.09,30.94,156.39.24,157.68H0v17.39a23.7,23.7,0,0,0,23.7,23.7H49.22a84,84,0,0,0,15-5.13c14.91-6.69,27.73-17.06,41.3-28,25.25-20.43,51.37-41.54,93.3-40.35V106.81l-1.31-.33C147.65,94.64,115,111.93,80.37,130.23Z"/><path class="cls-3" d="M168.92,62.64c-18.86-10.9-35.15-20.31-55.48-13.46C97.31,54.61,86.37,65.78,73.7,78.71,56.93,95.81,37.93,115.2,1.76,127.1L0,127.65v18.78c28.05-1.24,50.92-13.33,75.12-26.14,34.63-18.32,70.44-37.24,123.65-25V77.71c-.7-.26-1.4-.52-2.11-.81C186.59,72.85,177.61,67.66,168.92,62.64Z"/><path class="cls-4" d="M175.07,0H69.89c-.16.54-.3,1.08-.46,1.62C57.18,42.5,31.06,79.7,2.86,96.38,1.91,96.94,1,97.48,0,98v17.83c32.44-11.09,50.08-29.08,65.67-45,13.11-13.39,25.5-26,44.18-32.32,25.14-8.47,44.36,2.63,64.7,14.39,7.71,4.45,15.68,9,24.22,12.68V23.7A23.7,23.7,0,0,0,175.07,0Z"/><path class="cls-5" d="M58.16,0H23.7A23.7,23.7,0,0,0,0,23.7V84.92C24.43,69,46.93,36.27,58.16,0Z"/><path class="cls-1" d="M260.72,102.35h25.81q11.85,0,18.84-6.31t7-17.59q0-12.06-6.88-18.17t-18.74-6.12h-26l4.4-5V165.64H242.93V33.13H289.4q14,0,24.19,5.83a41.54,41.54,0,0,1,16,16.06,47,47,0,0,1,5.74,23.43,46.63,46.63,0,0,1-5.74,23.23,40.62,40.62,0,0,1-16.06,16q-10.32,5.74-24.09,5.74H260.72Z"/><path class="cls-1" d="M436.25,88.58V68.31H493V88.58Zm43.21,77.06q-13.38,0-21.12-7.36T450.59,135V68.31L454.8,49h18v84.13c0,3.83,1,6.63,2.87,8.42a10.51,10.51,0,0,0,7.46,2.67,36,36,0,0,0,5.54-.38,31,31,0,0,0,4.4-1v20.65a44.54,44.54,0,0,1-6,1.54A43.31,43.31,0,0,1,479.46,165.64Z"/><path class="cls-1" d="M383.67,165.64q-13.77,0-24.1-6a42.08,42.08,0,0,1-16.15-16.92q-5.84-10.89-5.83-25.43,0-14.72,5.83-25.72a42.64,42.64,0,0,1,16.15-17.11q10.33-6.12,24.1-6.12,13.95,0,24.38,6.22a42.61,42.61,0,0,1,16.16,17.2q5.73,11,5.73,25.34c0,1.15,0,2.29-.09,3.44s-.17,2.17-.29,3.06H357.09V105.79h56l-4.58,10.13q0-13.19-6.12-21.6T383.86,85.9q-11.28,0-17.88,7t-6.6,18.45v10.14q0,11.85,6.6,18.83t18.26,7q10.51,0,16.35-4.4a42.27,42.27,0,0,0,10-10.89l15.87,9.56a44.25,44.25,0,0,1-16.83,18Q399.16,165.64,383.67,165.64Z"/><path class="cls-1" d="M526.7,68.31l5.92,27.15v70.18H510.44V68.31Zm1.9,38.05-4.58-2.1V87.62l1.72-2.29a35.17,35.17,0,0,1,6.12-7.27,41.17,41.17,0,0,1,9.84-6.88,25.28,25.28,0,0,1,11.57-2.87,37.91,37.91,0,0,1,5.45.38A9.23,9.23,0,0,1,562.64,70V90.11h-6.12q-12.62,0-18.93,3.92T528.6,106.36Z"/><path class="cls-1" d="M609.3,165.64q-13.77,0-24.1-6a42.08,42.08,0,0,1-16.15-16.92q-5.84-10.89-5.84-25.43,0-14.72,5.84-25.72A42.64,42.64,0,0,1,585.2,74.43q10.34-6.12,24.1-6.12,14,0,24.38,6.22a42.52,42.52,0,0,1,16.15,17.2q5.74,11,5.74,25.34c0,1.15,0,2.29-.1,3.44s-.16,2.17-.28,3.06H582.72V105.79h56l-4.59,10.13q0-13.19-6.11-21.6T609.49,85.9q-11.28,0-17.88,7T585,111.33v10.14q0,11.85,6.6,18.83t18.26,7q10.51,0,16.35-4.4a42.27,42.27,0,0,0,10-10.89l15.87,9.56a44.25,44.25,0,0,1-16.83,18Q624.79,165.64,609.3,165.64Z"/><path class="cls-1" d="M698.78,165.64a45.64,45.64,0,0,1-19.88-4.56q-9.57-4.58-16.45-15.4l15.11-11.41a44.47,44.47,0,0,0,10.9,9.89,24.45,24.45,0,0,0,12.62,3q5.35,0,8.41-2.66a8.46,8.46,0,0,0,3.06-6.66,7.86,7.86,0,0,0-1.53-4.75q-1.53-2.08-5.64-3.89a76.29,76.29,0,0,0-11.76-3.71q-14.14-3.61-21.51-9.89T664.75,97a27,27,0,0,1,4-14.35,28.41,28.41,0,0,1,11.67-10.45,39.05,39.05,0,0,1,18-3.9q12.44,0,21.23,4.94a44.6,44.6,0,0,1,14,11.79L718.1,97.21a35.28,35.28,0,0,0-8.7-6.75,25.87,25.87,0,0,0-13.1-3.14,15.13,15.13,0,0,0-8.22,2.28,7.21,7.21,0,0,0-3.64,6.46,8,8,0,0,0,3.64,6.66q3.63,2.66,13.76,4.94,17,4,24.29,10.65t7.26,17.48a26.74,26.74,0,0,1-4.78,15.88A31,31,0,0,1,716,162,40.75,40.75,0,0,1,698.78,165.64Z"/></g></g></svg>