<svg xmlns="http://www.w3.org/2000/svg" viewBox="0 0 198.77 198.77"><defs><style>.cls-1{fill:#000096;}.cls-2{fill:#304071;}.cls-3{fill:#60804b;}.cls-4{fill:#8fbf26;}.cls-5{fill:#bfff00;}</style></defs><g id="Layer_2" data-name="Layer 2"><g id="Layer_1-2" data-name="Layer 1"><path class="cls-1" d="M112.54,174.34c-10.67,8.63-21.63,17.49-33.75,24.43h96.28a23.7,23.7,0,0,0,23.7-23.7V136.5h-.17C160.74,135.36,137.32,154.3,112.54,174.34Z"/><path class="cls-2" d="M80.37,130.23C56.07,143.09,30.94,156.39.24,157.68H0v17.39a23.7,23.7,0,0,0,23.7,23.7H49.22a84,84,0,0,0,15-5.13c14.91-6.69,27.73-17.06,41.3-28,25.25-20.43,51.37-41.54,93.3-40.35V106.81l-1.31-.33C147.65,94.64,115,111.93,80.37,130.23Z"/><path class="cls-3" d="M168.92,62.64c-18.86-10.9-35.15-20.31-55.48-13.46C97.31,54.61,86.37,65.78,73.7,78.71,56.93,95.81,37.93,115.2,1.76,127.1L0,127.65v18.78c28.05-1.24,50.92-13.33,75.12-26.14,34.63-18.32,70.44-37.24,123.65-25V77.71c-.7-.26-1.4-.52-2.11-.81C186.59,72.85,177.61,67.66,168.92,62.64Z"/><path class="cls-4" d="M175.07,0H69.89c-.16.54-.3,1.08-.46,1.62C57.18,42.5,31.06,79.7,2.86,96.38,1.91,96.94,1,97.48,0,98v17.83c32.44-11.09,50.08-29.08,65.67-45,13.11-13.39,25.5-26,44.18-32.32,25.14-8.47,44.36,2.63,64.7,14.39,7.71,4.45,15.68,9,24.22,12.68V23.7A23.7,23.7,0,0,0,175.07,0Z"/><path class="cls-5" d="M58.16,0H23.7A23.7,23.7,0,0,0,0,23.7V84.92C24.43,69,46.93,36.27,58.16,0Z"/></g></g></svg>